<?xml version="1.0" standalone="no"?>
<!DOCTYPE svg PUBLIC "-//W3C//DTD SVG 20010904//EN"
 "http://www.w3.org/TR/2001/REC-SVG-20010904/DTD/svg10.dtd">
<svg version="1.0" xmlns="http://www.w3.org/2000/svg"
 width="675.000000pt" height="1200.000000pt" viewBox="0 0 675.000000 1200.000000"
 preserveAspectRatio="xMidYMid meet">

<g transform="translate(0.000000,1200.000000) scale(0.100000,-0.100000)"
fill="#000000" stroke="none">
<path d="M4423 11135 c-3 -9 -3 -18 -1 -21 3 -3 8 4 11 16 6 23 -1 27 -10 5z"/>
<path d="M3800 10010 c-6 -11 -8 -20 -6 -20 3 0 10 9 16 20 6 11 8 20 6 20 -3
0 -10 -9 -16 -20z"/>
<path d="M6486 9357 c3 -10 9 -15 12 -12 3 3 0 11 -7 18 -10 9 -11 8 -5 -6z"/>
<path d="M6512 9295 c0 -16 2 -22 5 -12 2 9 2 23 0 30 -3 6 -5 -1 -5 -18z"/>
<path d="M5756 9025 c8 -37 14 -45 14 -19 0 10 -5 26 -10 34 -8 11 -9 7 -4
-15z"/>
<path d="M6682 8730 c0 -14 2 -19 5 -12 2 6 2 18 0 25 -3 6 -5 1 -5 -13z"/>
<path d="M3824 8518 l-19 -23 23 19 c12 11 22 21 22 23 0 8 -8 2 -26 -19z"/>
<path d="M6556 8443 c-6 -14 -5 -15 5 -6 7 7 10 15 7 18 -3 3 -9 -2 -12 -12z"/>
<path d="M5102 8365 c0 -16 2 -22 5 -12 2 9 2 23 0 30 -3 6 -5 -1 -5 -18z"/>
<path d="M5106 8315 c4 -8 8 -15 10 -15 2 0 4 7 4 15 0 8 -4 15 -10 15 -5 0
-7 -7 -4 -15z"/>
<path d="M5436 8104 c-4 -14 -5 -28 -3 -31 3 -2 8 8 11 23 4 14 5 28 3 31 -3
2 -8 -8 -11 -23z"/>
<path d="M6700 7709 c0 -5 5 -7 10 -4 6 3 10 8 10 11 0 2 -4 4 -10 4 -5 0 -10
-5 -10 -11z"/>
<path d="M5590 7303 c0 -12 36 -82 47 -93 3 -3 2 6 -2 19 -10 32 -45 90 -45
74z"/>
<path d="M5640 7193 c0 -5 5 -15 10 -23 8 -12 10 -11 10 8 0 12 -4 22 -10 22
-5 0 -10 -3 -10 -7z"/>
<path d="M5661 7140 c0 -8 4 -24 9 -35 l9 -20 0 20 c0 11 -4 27 -9 35 -9 13
-10 13 -9 0z"/>
<path d="M5680 6999 c0 -11 5 -17 10 -14 6 3 10 13 10 21 0 8 -4 14 -10 14 -5
0 -10 -9 -10 -21z"/>
<path d="M6720 7010 c0 -5 5 -10 11 -10 5 0 7 5 4 10 -3 6 -8 10 -11 10 -2 0
-4 -4 -4 -10z"/>
<path d="M5830 6900 c-12 -23 -5 -26 16 -6 8 9 10 17 5 21 -6 3 -15 -4 -21
-15z"/>
<path d="M5604 6899 c-3 -6 -15 -8 -26 -6 -11 3 -21 0 -25 -9 -3 -8 -11 -14
-19 -14 -8 0 -14 -10 -14 -22 0 -16 3 -19 9 -10 4 7 21 12 37 10 22 -2 29 1
29 14 0 25 14 33 21 14 4 -10 2 -22 -5 -29 -6 -6 -11 -19 -11 -29 0 -10 -4
-18 -8 -18 -5 0 -15 -12 -22 -27 -8 -16 -32 -45 -53 -66 -23 -22 -37 -43 -33
-52 3 -9 -11 -25 -39 -44 -26 -17 -45 -25 -45 -18 0 8 -3 8 -9 -2 -6 -10 -10
-10 -16 -1 -5 8 -13 6 -29 -9 -12 -11 -36 -24 -54 -27 -27 -6 -31 -4 -26 10 7
17 -11 23 -21 6 -3 -5 -18 -11 -33 -11 l-27 -1 30 -8 c17 -4 23 -9 15 -10 -35
-4 -51 -9 -81 -24 -18 -9 -36 -16 -41 -16 -5 0 -16 -7 -25 -15 -20 -20 -49
-15 -45 8 2 11 -2 15 -11 11 -9 -3 -23 7 -37 25 -12 17 -26 31 -31 31 -13 0 3
-28 35 -62 14 -15 26 -30 26 -34 0 -4 7 -16 17 -26 9 -11 11 -18 5 -18 -7 0
-12 -5 -12 -11 0 -6 7 -9 15 -5 10 4 15 -1 15 -15 0 -16 -3 -18 -19 -9 -11 5
-22 7 -24 3 -7 -12 -1 -72 7 -80 9 -9 26 16 26 40 0 9 4 17 8 17 13 0 7 -63
-7 -68 -6 -2 -11 -8 -11 -13 0 -6 4 -8 9 -5 16 11 17 -40 2 -95 -18 -62 -50
-117 -50 -86 -1 9 4 26 11 37 7 10 9 23 4 27 -4 4 -12 0 -17 -9 -5 -10 -16
-15 -24 -12 -20 8 -19 2 5 -42 22 -39 20 -55 -5 -34 -18 15 -20 -1 -3 -18 10
-10 10 -15 -1 -21 -8 -5 -10 -14 -6 -22 5 -8 5 -11 1 -7 -4 3 -24 -11 -43 -33
-19 -21 -40 -39 -47 -38 -7 0 -6 2 2 6 6 2 12 13 12 24 0 10 6 19 13 19 20 0
42 33 45 68 2 33 -6 40 -26 20 -9 -9 -13 -7 -18 5 -10 28 -21 19 -16 -13 3
-25 8 -29 23 -25 29 9 24 -20 -5 -33 -19 -8 -26 -8 -29 1 -7 19 -45 -34 -39
-55 2 -10 9 -18 15 -18 7 0 6 -5 -2 -12 -11 -10 -14 -10 -18 0 -3 6 -9 12 -14
12 -6 0 -8 -4 -4 -9 3 -5 1 -12 -5 -16 -5 -3 -10 1 -10 9 0 9 -9 16 -21 16
-11 0 -17 -5 -14 -10 6 -10 -17 -40 -29 -40 -4 0 -4 11 0 25 7 29 -3 31 -32 7
-24 -20 -48 -63 -57 -103 -5 -18 -17 -30 -39 -37 -18 -7 -23 -10 -10 -8 20 4
22 1 20 -35 -2 -23 -8 -39 -15 -39 -7 0 -13 -6 -13 -12 -1 -9 -5 -8 -13 3 -13
17 -41 14 -31 -3 4 -6 0 -14 -7 -19 -9 -6 -1 -7 21 -3 l35 7 -22 -22 c-12 -11
-31 -21 -42 -21 -11 0 -23 -4 -26 -10 -3 -5 -1 -10 4 -10 6 0 11 -7 11 -15 0
-21 -17 -19 -30 4 -8 16 -13 18 -35 8 -25 -12 -28 -28 -7 -35 7 -2 16 7 21 20
l10 23 0 -25 c1 -38 -14 -57 -32 -41 -9 7 -18 8 -21 2 -3 -5 -2 -11 4 -13 6
-2 6 -8 0 -18 -8 -13 -10 -12 -10 3 0 9 -4 17 -9 17 -5 0 -7 9 -4 21 5 19 4
20 -16 7 -12 -7 -20 -21 -19 -33 3 -16 -4 -21 -34 -23 -21 -2 -38 -7 -38 -13
0 -5 5 -9 10 -9 6 0 10 -5 10 -11 0 -7 -11 -9 -29 -6 -23 5 -30 2 -34 -13 -3
-12 -14 -20 -27 -20 -13 0 -20 -5 -18 -12 5 -14 -39 -41 -53 -32 -5 3 -9 0 -9
-5 0 -20 78 -5 100 19 3 3 21 5 40 6 64 1 263 45 390 84 69 22 139 42 155 45
60 13 82 27 104 66 13 22 41 50 66 65 l45 26 -1 57 c-1 31 6 73 14 93 17 41
99 128 120 128 9 0 30 26 47 58 43 77 82 116 164 164 127 75 265 102 374 74
34 -8 88 -29 121 -46 68 -34 83 -37 75 -15 -7 17 7 20 22 6 27 -28 224 -55
224 -31 0 5 12 9 27 8 14 -2 28 2 30 9 3 7 16 8 45 1 30 -6 43 -6 49 3 6 10
11 10 22 0 17 -13 115 -13 123 1 3 4 14 8 24 8 10 0 21 6 23 13 4 10 6 10 6 0
1 -7 12 -13 26 -13 16 0 25 -6 25 -16 0 -15 57 -74 71 -74 4 0 16 -3 26 -6 10
-3 6 2 -9 13 -20 14 -24 22 -17 33 6 10 11 12 17 4 11 -17 52 -36 52 -25 0 5
-8 12 -17 14 -17 4 -17 5 0 6 23 1 22 33 -3 54 -25 21 -30 21 -30 3 0 -17 -18
-31 -27 -22 -4 3 0 17 7 31 10 19 11 28 2 37 -8 8 -14 4 -23 -16 -11 -24 -33
-33 -29 -12 1 5 -4 13 -12 18 -9 7 -7 8 9 5 25 -5 43 11 25 22 -6 3 -10 21
-10 39 1 29 3 31 17 17 14 -12 24 -12 54 -3 39 12 49 33 20 41 -16 4 -16 5 -1
6 14 1 16 22 17 190 l1 189 -147 -65 c-82 -36 -161 -71 -178 -78 -16 -8 -59
-23 -95 -35 -36 -11 -72 -25 -80 -29 -8 -4 -46 -16 -84 -26 -62 -17 -70 -17
-79 -3 -8 12 -16 13 -45 4 -27 -8 -36 -8 -40 2 -2 7 -7 10 -12 7 -4 -3 -25 2
-46 11 -79 33 -178 116 -202 168 -18 40 -15 116 4 131 13 9 15 18 7 41 -9 27
-13 29 -76 31 -39 2 -69 -1 -73 -8z m85 -64 c0 -5 -4 -3 -9 5 -5 8 -9 22 -9
30 0 16 17 -16 18 -35z m115 -420 c-42 -19 -91 -30 -81 -19 10 10 75 32 97 32
8 0 1 -6 -16 -13z m-164 -49 c-41 -13 -87 -28 -102 -34 -21 -9 -26 -8 -22 1 2
7 26 19 52 26 26 7 58 17 72 21 14 5 36 8 50 9 14 0 -9 -11 -50 -23z m-603
-28 c-3 -8 -6 -5 -6 6 -1 11 2 17 5 13 3 -3 4 -12 1 -19z m1498 -26 c-3 -3
-11 0 -18 7 -9 10 -8 11 6 5 10 -3 15 -9 12 -12z m45 -12 c0 -5 -2 -10 -4 -10
-3 0 -8 5 -11 10 -3 6 -1 10 4 10 6 0 11 -4 11 -10z m-95 -10 c3 -5 -3 -10
-15 -10 -12 0 -18 5 -15 10 3 6 10 10 15 10 5 0 12 -4 15 -10z m143 -11 c-2
-6 -8 -10 -13 -10 -5 0 -11 4 -13 10 -2 6 4 11 13 11 9 0 15 -5 13 -11z m-40
-16 c-1 -10 1 -24 5 -30 5 -8 4 -13 -2 -13 -6 0 -11 5 -11 10 0 6 -7 10 -15
10 -21 0 -19 28 3 33 9 3 18 5 20 6 2 0 2 -7 0 -16z m-58 -8 c0 -8 -4 -15 -10
-15 -5 0 -10 7 -10 15 0 8 5 15 10 15 6 0 10 -7 10 -15z m-47 -15 c-3 -11 -9
-17 -15 -14 -5 3 -4 12 3 20 16 19 18 18 12 -6z m-43 6 c0 -3 -4 -8 -10 -11
-5 -3 -10 -1 -10 4 0 6 5 11 10 11 6 0 10 -2 10 -4z m210 -82 c0 -8 -4 -12
-10 -9 -5 3 -10 13 -10 21 0 8 5 12 10 9 6 -3 10 -13 10 -21z m-2005 -474 c3
-5 1 -10 -4 -10 -6 0 -11 5 -11 10 0 6 2 10 4 10 3 0 8 -4 11 -10z m-88 -127
c-3 -10 -5 -4 -5 12 0 17 2 24 5 18 2 -7 2 -21 0 -30z m-52 -49 c-9 -9 -19
-13 -23 -10 -3 4 0 11 8 16 24 15 33 11 15 -6z m52 0 c-3 -3 -12 -4 -19 -1 -8
3 -5 6 6 6 11 1 17 -2 13 -5z"/>
<path d="M5900 6900 c0 -5 6 -10 14 -10 8 0 18 5 21 10 3 6 -3 10 -14 10 -12
0 -21 -4 -21 -10z"/>
<path d="M5958 6903 c7 -3 16 -2 19 1 4 3 -2 6 -13 5 -11 0 -14 -3 -6 -6z"/>
<path d="M5770 6890 c-12 -8 -10 -10 8 -10 13 0 20 4 17 10 -7 12 -6 12 -25 0z"/>
<path d="M5503 6883 c-15 -6 -17 -33 -3 -33 6 0 10 6 10 14 0 8 6 17 13 19 6
3 8 5 2 5 -5 0 -16 -2 -22 -5z"/>
<path d="M6720 6886 c0 -2 7 -6 15 -10 8 -3 15 -1 15 4 0 6 -7 10 -15 10 -8 0
-15 -2 -15 -4z"/>
<path d="M6713 6855 c2 -13 -10 -30 -32 -47 -36 -29 -46 -35 -36 -18 3 6 0 10
-8 10 -8 0 -14 -8 -13 -17 0 -10 -9 -22 -22 -28 -13 -6 -20 -16 -17 -24 4 -10
-1 -12 -16 -8 -11 3 -18 3 -15 0 7 -8 -39 -43 -57 -43 -8 0 -20 -7 -27 -15 -7
-8 -16 -12 -22 -9 -5 3 -15 0 -23 -6 -8 -7 -15 -9 -15 -6 0 4 -13 -2 -29 -13
-15 -11 -40 -25 -55 -31 -14 -5 -26 -14 -26 -20 0 -5 1 -10 3 -10 17 0 284
114 372 160 68 35 70 37 73 78 2 32 0 42 -12 42 -8 0 -17 6 -20 13 -3 6 -4 3
-3 -8z"/>
<path d="M5418 6853 c7 -3 16 -2 19 1 4 3 -2 6 -13 5 -11 0 -14 -3 -6 -6z"/>
<path d="M6630 6836 c0 -8 4 -17 9 -20 5 -4 7 3 4 14 -6 23 -13 26 -13 6z"/>
<path d="M6660 6840 c0 -5 5 -10 11 -10 5 0 7 5 4 10 -3 6 -8 10 -11 10 -2 0
-4 -4 -4 -10z"/>
<path d="M6447 6700 c3 -11 7 -20 8 -20 1 0 5 9 8 20 3 12 0 20 -8 20 -8 0
-11 -8 -8 -20z"/>
<path d="M5191 6603 c0 -10 3 -13 5 -6 3 7 12 9 20 6 8 -3 14 0 14 6 0 6 -9
11 -20 11 -13 0 -20 -6 -19 -17z"/>
<path d="M4876 6595 c10 -8 24 -14 29 -14 6 0 1 6 -9 14 -11 8 -24 15 -30 15
-5 0 -1 -7 10 -15z"/>
<path d="M4606 6575 c-11 -8 -15 -15 -9 -15 6 0 16 7 23 15 16 19 11 19 -14 0z"/>
<path d="M6258 6563 c7 -3 16 -2 19 1 4 3 -2 6 -13 5 -11 0 -14 -3 -6 -6z"/>
<path d="M6198 6553 c7 -3 16 -2 19 1 4 3 -2 6 -13 5 -11 0 -14 -3 -6 -6z"/>
<path d="M6100 6536 c0 -9 30 -14 35 -6 4 6 -3 10 -14 10 -12 0 -21 -2 -21 -4z"/>
<path d="M4970 6332 c0 -22 5 -32 16 -32 11 0 14 6 9 23 -12 38 -25 43 -25 9z"/>
<path d="M6718 6303 c6 -2 18 -2 25 0 6 3 1 5 -13 5 -14 0 -19 -2 -12 -5z"/>
<path d="M4620 6250 c0 -5 5 -10 10 -10 6 0 10 5 10 10 0 6 -4 10 -10 10 -5 0
-10 -4 -10 -10z"/>
<path d="M5020 6250 c0 -5 5 -10 10 -10 6 0 10 5 10 10 0 6 -4 10 -10 10 -5 0
-10 -4 -10 -10z"/>
<path d="M4785 6220 c3 -5 8 -10 11 -10 2 0 4 5 4 10 0 6 -5 10 -11 10 -5 0
-7 -4 -4 -10z"/>
<path d="M4927 6223 c-12 -11 -8 -23 8 -23 8 0 15 7 15 15 0 16 -12 20 -23 8z"/>
<path d="M3272 6190 c0 -14 2 -19 5 -12 2 6 2 18 0 25 -3 6 -5 1 -5 -13z"/>
<path d="M4895 6189 c-10 -15 3 -25 16 -12 7 7 7 13 1 17 -6 3 -14 1 -17 -5z"/>
<path d="M4940 6175 c-8 -9 -8 -15 -2 -15 12 0 26 19 19 26 -2 2 -10 -2 -17
-11z"/>
<path d="M4646 6172 c-3 -6 -1 -14 5 -17 15 -10 25 3 12 16 -7 7 -13 7 -17 1z"/>
<path d="M3280 6146 c0 -8 4 -17 9 -20 5 -4 7 3 4 14 -6 23 -13 26 -13 6z"/>
<path d="M4690 6120 c0 -5 5 -10 10 -10 6 0 10 5 10 10 0 6 -4 10 -10 10 -5 0
-10 -4 -10 -10z"/>
<path d="M4565 6100 c-3 -5 -1 -10 4 -10 6 0 11 5 11 10 0 6 -2 10 -4 10 -3 0
-8 -4 -11 -10z"/>
<path d="M6728 6083 c7 -3 16 -2 19 1 4 3 -2 6 -13 5 -11 0 -14 -3 -6 -6z"/>
<path d="M4860 6020 c0 -5 5 -10 10 -10 6 0 10 5 10 10 0 6 -4 10 -10 10 -5 0
-10 -4 -10 -10z"/>
<path d="M4800 5966 c0 -9 5 -16 10 -16 6 0 10 4 10 9 0 6 -4 13 -10 16 -5 3
-10 -1 -10 -9z"/>
<path d="M4736 5963 c-11 -11 -6 -23 9 -23 8 0 15 4 15 9 0 13 -16 22 -24 14z"/>
<path d="M4168 5733 c7 -3 16 -2 19 1 4 3 -2 6 -13 5 -11 0 -14 -3 -6 -6z"/>
<path d="M4126 5701 c-4 -7 -5 -15 -2 -18 9 -9 19 4 14 18 -4 11 -6 11 -12 0z"/>
<path d="M4508 5690 c-10 -10 -14 -22 -9 -24 10 -6 51 22 51 35 0 16 -25 10
-42 -11z"/>
<path d="M4167 5673 c3 -7 9 -13 13 -13 4 0 10 6 13 13 3 7 -3 13 -13 13 -10
0 -16 -6 -13 -13z"/>
<path d="M4430 5671 c0 -5 9 -11 20 -14 11 -3 20 -12 20 -21 0 -19 16 -21 26
-4 4 6 2 14 -4 16 -7 2 -12 10 -12 18 0 8 -10 14 -25 14 -14 0 -25 -4 -25 -9z"/>
<path d="M4420 5610 c0 -5 5 -10 11 -10 5 0 7 5 4 10 -3 6 -8 10 -11 10 -2 0
-4 -4 -4 -10z"/>
<path d="M4040 5586 c0 -7 -10 -16 -22 -19 -12 -4 -19 -9 -16 -13 10 -9 68 19
68 33 0 7 -7 13 -15 13 -8 0 -15 -6 -15 -14z"/>
<path d="M4080 5585 c0 -16 16 -20 24 -6 3 5 -1 11 -9 15 -9 3 -15 0 -15 -9z"/>
<path d="M3985 5580 c3 -5 8 -10 11 -10 2 0 4 5 4 10 0 6 -5 10 -11 10 -5 0
-7 -4 -4 -10z"/>
<path d="M4160 5580 c0 -5 5 -10 11 -10 5 0 7 5 4 10 -3 6 -8 10 -11 10 -2 0
-4 -4 -4 -10z"/>
<path d="M4103 5565 c-39 -17 -19 -95 20 -79 23 8 21 20 -5 38 -18 13 -19 16
-6 16 20 0 29 12 20 26 -5 6 -15 6 -29 -1z"/>
<path d="M4340 5560 c0 -5 5 -10 10 -10 6 0 10 5 10 10 0 6 -4 10 -10 10 -5 0
-10 -4 -10 -10z"/>
<path d="M4260 5546 c0 -8 6 -16 14 -19 10 -4 12 0 9 14 -6 22 -23 26 -23 5z"/>
<path d="M4045 5530 c-3 -5 -1 -10 4 -10 6 0 11 5 11 10 0 6 -2 10 -4 10 -3 0
-8 -4 -11 -10z"/>
<path d="M4320 5520 c0 -5 5 -10 11 -10 5 0 7 5 4 10 -3 6 -8 10 -11 10 -2 0
-4 -4 -4 -10z"/>
<path d="M4213 5508 c-25 -32 -26 -40 -4 -29 11 7 21 18 21 26 0 18 -5 19 -17
3z"/>
<path d="M4845 5506 c-292 -98 -457 -150 -535 -170 -232 -60 -296 -78 -305
-87 -7 -7 2 -8 27 -4 49 9 62 0 42 -31 -10 -15 -12 -24 -5 -24 6 0 11 5 11 11
0 5 5 7 10 4 6 -3 10 -17 10 -30 0 -12 7 -26 16 -29 8 -3 12 -10 9 -16 -3 -5
-3 -10 2 -10 11 0 34 -53 37 -85 2 -13 -1 -22 -5 -19 -5 3 -17 0 -27 -5 -14
-7 -25 -6 -40 5 -24 17 -27 12 -11 -17 9 -17 7 -20 -7 -17 -23 4 -30 -19 -7
-25 10 -2 1 -4 -19 -3 -21 0 -34 2 -30 5 5 4 11 14 15 24 6 15 0 17 -42 17
-42 0 -48 -3 -45 -17 3 -11 -9 -33 -31 -56 -19 -20 -35 -42 -35 -47 0 -6 -11
-10 -24 -10 -31 0 -42 -16 -19 -25 26 -10 151 26 156 44 4 14 5 14 6 -1 1 -15
6 -15 59 -2 170 42 262 71 255 78 -4 5 2 6 13 2 12 -4 32 -2 45 3 13 5 33 12
44 16 l20 7 -20 9 c-15 7 -9 8 19 5 48 -6 128 12 119 27 -3 6 -1 7 6 3 6 -4
53 8 104 27 51 20 125 45 166 57 71 21 73 22 67 48 -32 143 -34 218 -7 295 22
63 21 64 -44 43z m-58 -267 c-6 -10 -17 -19 -24 -19 -7 0 -13 -4 -13 -10 0 -5
-4 -10 -10 -10 -5 0 -10 15 -10 33 1 31 1 31 16 12 13 -17 16 -18 25 -5 5 8 7
24 5 35 -5 19 -4 19 9 1 11 -14 11 -22 2 -37z m50 -16 c-4 -17 -4 -17 -12 0
-4 9 -4 25 0 35 8 16 8 16 12 0 3 -10 3 -26 0 -35z m-156 -46 c-1 -12 -15 -9
-19 4 -3 6 1 10 8 8 6 -3 11 -8 11 -12z m-28 -31 c-3 -4 -9 -2 -14 5 -13 22
-11 31 5 17 8 -7 12 -17 9 -22z m-221 0 c4 -18 0 -26 -14 -29 -16 -4 -17 -3
-7 9 6 7 9 21 5 29 -3 8 -2 15 3 15 5 0 11 -11 13 -24z m-86 -1 c-8 -8 -18
-15 -22 -15 -3 0 -1 7 6 15 7 8 17 15 22 15 5 0 3 -7 -6 -15z m174 5 c0 -5 -5
-10 -11 -10 -5 0 -7 5 -4 10 3 6 8 10 11 10 2 0 4 -4 4 -10z m-345 -10 c-3 -5
-13 -10 -21 -10 -8 0 -14 5 -14 10 0 6 9 10 21 10 11 0 17 -4 14 -10z m445
-29 c0 -9 -59 -1 -64 8 -3 4 11 5 30 3 19 -2 34 -7 34 -11z m85 9 c3 -5 1 -10
-4 -10 -6 0 -11 5 -11 10 0 6 2 10 4 10 3 0 8 -4 11 -10z m-508 -6 c-3 -3 -12
-4 -19 -1 -8 3 -5 6 6 6 11 1 17 -2 13 -5z m123 -20 c0 -8 -4 -12 -10 -9 -5 3
-10 10 -10 16 0 5 5 9 10 9 6 0 10 -7 10 -16z m-22 -25 c13 -16 21 -29 19 -29
-17 0 -37 14 -37 26 0 8 -4 14 -10 14 -5 0 -10 -5 -10 -10 0 -13 -41 -30 -54
-23 -4 3 6 12 23 20 17 9 31 19 31 24 0 17 15 8 38 -22z m72 21 c0 -5 -7 -10
-16 -10 -8 0 -12 5 -9 10 3 6 10 10 16 10 5 0 9 -4 9 -10z m205 0 c3 -5 1 -10
-4 -10 -6 0 -11 5 -11 10 0 6 2 10 4 10 3 0 8 -4 11 -10z m-123 -44 c9 5 10 4
3 -3 -18 -19 -55 -26 -55 -10 0 21 12 28 26 16 7 -6 19 -7 26 -3z m-162 -26
c0 -5 -4 -10 -10 -10 -5 0 -10 5 -10 10 0 6 5 10 10 10 6 0 10 -4 10 -10z m63
-10 c-6 -23 -21 -35 -31 -25 -3 3 0 10 8 16 13 8 13 10 0 19 -12 8 -11 10 7
10 16 0 20 -5 16 -20z m127 10 c0 -5 -5 -10 -11 -10 -5 0 -7 5 -4 10 3 6 8 10
11 10 2 0 4 -4 4 -10z m-270 -36 c0 -8 -5 -12 -10 -9 -6 4 -8 11 -5 16 9 14
15 11 15 -7z m79 -5 c-16 -10 -23 -4 -14 10 3 6 11 8 17 5 6 -4 5 -9 -3 -15z
m-45 -15 c3 -8 2 -12 -4 -9 -6 3 -10 10 -10 16 0 14 7 11 14 -7z m-44 -14 c11
-8 7 -9 -15 -4 -23 4 -26 3 -15 -5 9 -7 10 -11 3 -11 -15 0 -25 15 -16 24 9 9
26 7 43 -4z m-70 -20 c12 -8 11 -10 -7 -10 -12 0 -25 5 -28 10 -8 13 15 13 35
0z m-60 -4 c0 -11 -19 -15 -25 -6 -3 5 1 10 9 10 9 0 16 -2 16 -4z"/>
<path d="M4064 5489 c-9 -15 18 -40 33 -31 9 6 8 12 -7 25 -13 10 -22 13 -26
6z"/>
<path d="M3960 5481 c0 -10 30 -24 37 -17 3 3 2 9 -2 15 -8 13 -35 15 -35 2z"/>
<path d="M4116 5444 c-4 -9 -4 -19 -1 -22 2 -3 7 3 11 12 4 9 4 19 1 22 -2 3
-7 -3 -11 -12z"/>
<path d="M4020 5440 c0 -5 9 -10 21 -10 11 0 17 5 14 10 -3 6 -13 10 -21 10
-8 0 -14 -4 -14 -10z"/>
<path d="M4440 5400 c-18 -12 -2 -12 25 0 13 6 15 9 5 9 -8 0 -22 -4 -30 -9z"/>
<path d="M4315 5364 l-40 -14 40 6 c42 6 85 24 55 23 -8 -1 -33 -7 -55 -15z"/>
<path d="M4110 5360 c0 -5 -16 -12 -35 -16 -20 -3 -34 -9 -31 -12 9 -8 96 20
90 29 -7 12 -24 11 -24 -1z"/>
<path d="M4160 5330 c-14 -5 -61 -16 -104 -26 -44 -10 -74 -20 -67 -22 15 -5
173 27 192 39 20 12 7 17 -21 9z"/>
<path d="M3920 5274 l-45 -14 43 4 c24 3 46 7 49 10 13 12 -4 12 -47 0z"/>
<path d="M3800 5250 c-13 -9 -13 -10 0 -9 8 1 26 5 40 9 l25 8 -25 1 c-14 0
-32 -4 -40 -9z"/>
<path d="M3691 5239 c-74 -12 -76 -19 -8 -19 35 0 57 4 57 11 0 6 7 9 15 6 8
-4 17 -2 20 3 7 11 -9 11 -84 -1z"/>
<path d="M3945 5240 c-13 -6 -15 -9 -5 -9 8 0 22 4 30 9 18 12 2 12 -25 0z"/>
<path d="M3989 5221 c12 -8 51 -4 51 5 0 2 -15 4 -32 4 -23 0 -29 -3 -19 -9z"/>
<path d="M3580 5216 c0 -9 30 -14 35 -6 4 6 -3 10 -14 10 -12 0 -21 -2 -21 -4z"/>
<path d="M3838 5213 c7 -3 16 -2 19 1 4 3 -2 6 -13 5 -11 0 -14 -3 -6 -6z"/>
<path d="M3918 5213 c7 -3 16 -2 19 1 4 3 -2 6 -13 5 -11 0 -14 -3 -6 -6z"/>
<path d="M3558 5153 c7 -3 16 -2 19 1 4 3 -2 6 -13 5 -11 0 -14 -3 -6 -6z"/>
<path d="M3830 5130 c-13 -8 -12 -10 3 -10 9 0 17 5 17 10 0 12 -1 12 -20 0z"/>
<path d="M4795 5086 c-66 -24 -131 -48 -143 -55 -13 -7 -26 -10 -29 -7 -4 3
-11 2 -17 -3 -12 -9 -172 -62 -263 -86 -73 -20 -241 -64 -268 -71 -11 -3 -37
-8 -58 -11 -24 -4 -34 -9 -26 -14 7 -4 -5 -7 -27 -7 -37 0 -140 -18 -119 -21
6 -1 3 -6 -5 -12 -13 -9 -13 -10 0 -8 29 3 39 -1 70 -32 24 -25 28 -34 18 -41
-9 -7 -7 -8 8 -4 14 4 29 -2 49 -22 28 -29 41 -62 24 -62 -5 0 -9 5 -9 11 0 5
-5 7 -10 4 -20 -13 8 -43 35 -38 15 3 25 1 25 -6 0 -6 -7 -11 -16 -11 -9 0
-14 -7 -12 -17 2 -12 11 -17 24 -15 20 3 45 -33 43 -61 0 -7 -7 2 -14 18 -16
36 -29 16 -17 -28 7 -27 11 -28 74 -31 43 -2 69 1 72 8 3 6 8 1 11 -11 4 -13
12 -23 17 -23 6 0 4 -8 -3 -17 -12 -15 -12 -16 2 -11 13 5 16 2 12 -13 -3 -10
-13 -19 -22 -19 -13 -1 -13 -3 4 -16 17 -13 18 -16 5 -24 -13 -8 -12 -10 3
-10 10 0 17 8 17 20 0 23 15 27 24 5 3 -8 -6 -27 -20 -42 -19 -20 -34 -27 -62
-26 -27 1 -32 -1 -20 -8 14 -8 15 -13 5 -32 -27 -51 -44 -67 -68 -65 -30 4
-58 56 -37 70 10 6 8 8 -4 8 -10 0 -18 5 -18 11 0 6 9 9 20 6 11 -3 23 -1 26
4 3 5 -9 9 -26 9 -23 0 -33 5 -37 20 -3 11 -12 20 -20 20 -8 0 -11 -4 -8 -10
3 -6 -1 -7 -9 -4 -9 3 -14 10 -11 14 3 5 1 11 -4 15 -13 8 -49 -15 -55 -35 -3
-12 -4 -11 -5 3 -1 10 -9 17 -23 17 -21 0 -21 0 2 -26 17 -17 31 -23 46 -20
25 7 54 -2 54 -15 0 -5 -14 -9 -31 -9 -51 0 -29 -25 25 -28 42 -3 47 -6 43
-23 -3 -11 1 -26 9 -34 13 -12 12 -15 -6 -25 -16 -8 -18 -8 -14 4 4 12 -3 13
-38 9 -54 -7 -61 -13 -49 -46 9 -22 8 -27 -4 -27 -8 0 -15 7 -15 15 0 8 -7 15
-15 15 -8 0 -15 -5 -15 -11 0 -5 -4 -7 -10 -4 -5 3 -10 15 -10 26 0 16 -6 19
-27 17 -18 -2 -27 2 -26 9 3 14 -32 27 -48 17 -8 -4 -7 -9 2 -16 11 -8 11 -9
-1 -5 -9 2 -14 13 -12 25 5 33 -14 26 -27 -8 -11 -34 -47 -43 -38 -10 3 11 1
20 -4 20 -12 0 -11 -47 1 -55 16 -10 12 -45 -5 -45 -8 0 -15 -7 -15 -15 0 -9
6 -12 15 -9 20 8 19 -3 -1 -24 -15 -14 -15 -17 1 -28 16 -12 16 -14 2 -28 -9
-9 -21 -16 -27 -16 -6 0 -10 -6 -9 -12 3 -25 -1 -38 -12 -38 -6 0 -9 9 -6 20
3 13 -1 24 -14 30 -20 11 -27 50 -9 50 6 0 10 -7 10 -15 0 -10 10 -15 31 -15
39 0 34 23 -7 30 -17 3 -29 11 -29 20 0 8 6 14 13 12 13 -2 29 25 20 34 -3 2
-17 0 -32 -5 -19 -8 -26 -18 -26 -36 0 -16 -6 -25 -15 -25 -8 0 -15 -4 -15
-10 0 -5 7 -10 16 -10 20 0 13 -24 -9 -28 -10 -2 -17 3 -17 12 0 9 -7 16 -15
16 -9 0 -12 -6 -9 -15 5 -13 2 -14 -20 -6 -19 8 -29 7 -40 -5 -10 -9 -24 -12
-41 -8 -18 5 -25 2 -25 -9 0 -8 6 -17 13 -20 8 -3 6 -7 -7 -12 -10 -5 -26 -4
-35 2 -13 8 -16 5 -17 -20 -1 -19 -11 -37 -30 -52 l-28 -22 22 -14 c12 -8 22
-19 22 -25 0 -7 14 -10 36 -7 26 3 34 0 28 -8 -4 -7 -3 -9 4 -6 16 11 39 -2
46 -25 4 -18 7 -19 20 -8 14 11 16 9 16 -10 0 -17 4 -21 20 -17 10 3 24 -1 31
-9 6 -8 16 -14 21 -14 5 0 20 -7 33 -16 20 -13 23 -20 14 -35 -6 -13 -6 -19 1
-19 5 0 10 -7 10 -16 0 -10 -6 -13 -17 -10 -10 3 -25 1 -33 -4 -12 -7 -11 -10
5 -16 24 -9 51 -34 37 -34 -6 0 -18 -3 -28 -7 -12 -4 -15 -3 -10 5 4 8 2 10
-8 6 -9 -3 -17 3 -21 16 -6 18 -12 21 -37 16 -17 -3 -36 -1 -43 4 -17 14 -45
2 -45 -19 -1 -14 -2 -14 -14 2 -16 21 -32 22 -40 1 -8 -22 -9 -22 19 -16 16 3
25 0 25 -8 0 -7 8 -4 19 8 21 25 40 30 20 5 -16 -18 -16 -23 1 -33 9 -5 9 -9
1 -14 -6 -4 -11 -2 -11 3 0 6 -7 11 -15 11 -8 0 -14 -5 -13 -12 2 -6 -6 -14
-17 -16 -11 -2 -24 -9 -28 -16 -5 -7 -7 -3 -6 9 3 37 -1 44 -17 38 -9 -3 -20
0 -24 7 -5 7 -13 9 -21 4 -35 -21 -90 -4 -68 22 7 9 -6 11 -51 10 -41 -1 -60
-5 -60 -13 0 -7 -5 -13 -11 -13 -5 0 -7 5 -4 11 5 7 -6 9 -31 7 -29 -2 -38 -7
-37 -19 2 -10 -10 -18 -39 -25 -23 -5 -43 -16 -46 -24 -2 -9 0 -11 5 -5 4 6
26 11 47 13 35 3 38 1 27 -12 -11 -13 -10 -19 10 -36 13 -10 31 -19 39 -20 11
0 11 -3 2 -12 -19 -19 -14 -28 16 -29 24 -1 22 -2 -11 -11 -39 -10 -62 -4 -38
11 11 7 11 12 0 30 -16 24 -41 29 -33 6 7 -18 -30 -34 -69 -30 -15 2 -25 -1
-21 -6 3 -5 -1 -9 -9 -9 -8 0 -17 10 -20 22 -6 21 -7 21 -25 5 -20 -18 -72
-23 -72 -7 0 6 7 10 16 10 9 0 21 14 27 30 6 17 17 30 24 30 21 0 15 19 -14
45 -36 31 -55 32 -50 3 2 -13 2 -17 0 -10 -5 14 -33 17 -33 3 0 -6 4 -12 8
-15 7 -4 8 -49 3 -75 -1 -2 -9 3 -19 12 -23 21 -34 12 -26 -19 7 -29 -9 -31
-27 -4 -11 16 -20 19 -44 12 -17 -5 -31 -16 -31 -25 -2 -13 -1 -14 3 -2 5 17
43 21 43 4 0 -7 -8 -18 -17 -25 -26 -18 -8 -30 22 -14 32 17 38 10 22 -23 -12
-27 -27 -36 -27 -17 0 6 -7 10 -15 10 -21 0 -19 -19 3 -26 9 -3 25 -10 35 -15
13 -7 17 -5 17 11 0 24 0 24 33 7 21 -11 23 -15 12 -30 -10 -14 -14 -15 -18
-5 -3 10 -7 10 -17 1 -7 -7 -25 -9 -42 -6 -23 4 -34 0 -58 -26 -26 -27 -27
-31 -11 -31 10 0 21 9 24 20 4 17 12 20 46 18 46 -2 48 -4 24 -31 -17 -20 -17
-20 7 -12 69 21 182 21 234 0 14 -6 17 -5 12 3 -5 8 -2 10 9 6 8 -4 31 1 51
11 32 15 39 15 73 2 l38 -16 14 36 c20 53 72 93 118 93 34 0 39 3 44 28 3 15
15 37 27 50 11 12 18 27 14 34 -4 7 -3 8 4 4 6 -4 25 0 41 9 48 24 77 19 124
-23 38 -35 102 -72 123 -72 4 0 3 5 -4 12 -17 17 -15 33 3 18 8 -7 15 -18 15
-25 0 -7 7 -18 15 -25 8 -7 15 -21 15 -31 0 -11 7 -19 18 -19 9 0 33 -3 53 -6
32 -5 38 -3 44 15 4 12 24 33 46 48 32 21 47 25 84 21 30 -4 42 -2 38 5 -4 6
0 8 9 4 10 -3 19 3 26 19 14 30 51 39 97 24 20 -7 37 -10 38 -8 1 1 7 13 14
25 10 18 10 22 -5 26 -13 4 -12 5 4 6 26 1 50 26 34 36 -5 3 -10 3 -10 -2 0
-4 -23 -8 -50 -8 -28 0 -50 3 -50 7 0 5 20 8 45 8 25 0 45 5 45 10 0 6 -9 27
-20 47 -29 55 -23 189 11 258 46 91 143 225 163 226 3 0 27 10 53 22 30 13 75
23 118 25 60 3 81 0 130 -22 l60 -25 25 29 c14 16 44 50 66 77 57 66 121 97
204 98 36 0 78 -4 93 -8 17 -5 26 -4 23 1 -3 5 7 10 22 10 15 0 30 -5 34 -11
4 -6 20 1 41 20 20 17 33 34 30 37 -3 3 -12 -2 -20 -12 -13 -16 -14 -16 -9 0
7 23 -36 67 -99 103 -150 85 -236 243 -215 395 4 32 16 73 25 91 20 39 103
119 125 119 9 1 5 6 -10 14 -14 8 -38 31 -53 53 -15 21 -33 45 -40 54 -11 15
-23 13 -132 -25z m-228 -112 c-3 -3 -12 -4 -19 -1 -8 3 -5 6 6 6 11 1 17 -2
13 -5z m-29 -34 c-14 -22 -29 -22 -36 0 -3 9 1 11 11 7 9 -3 19 -2 22 3 4 6 8
10 11 10 2 0 -1 -9 -8 -20z m-98 0 c0 -5 -4 -10 -10 -10 -5 0 -10 5 -10 10 0
6 5 10 10 10 6 0 10 -4 10 -10z m160 -11 c0 -5 -4 -9 -10 -9 -5 0 -10 7 -10
16 0 8 5 12 10 9 6 -3 10 -10 10 -16z m-123 -36 c-3 -10 -5 -4 -5 12 0 17 2
24 5 18 2 -7 2 -21 0 -30z m91 -8 c-12 -26 -32 -33 -43 -15 -3 6 3 10 14 10
12 0 21 7 21 15 0 8 4 15 10 15 6 0 5 -10 -2 -25z m-58 5 c0 -5 -4 -10 -10
-10 -5 0 -10 5 -10 10 0 6 5 10 10 10 6 0 10 -4 10 -10z m-260 -4 c0 -3 -4 -8
-10 -11 -5 -3 -10 -1 -10 4 0 6 5 11 10 11 6 0 10 -2 10 -4z m90 -16 c0 -5 -2
-10 -4 -10 -3 0 -8 5 -11 10 -3 6 -1 10 4 10 6 0 11 -4 11 -10z m187 -45 c-10
-7 -17 -16 -17 -20 0 -8 -34 -36 -89 -73 -26 -18 -40 -22 -60 -16 -25 8 -25 8
7 12 27 3 33 7 29 22 -3 13 -1 17 10 13 7 -3 21 1 31 9 9 8 25 18 34 21 11 4
15 12 12 22 -4 11 -2 14 9 10 8 -4 17 1 21 10 3 9 11 13 17 9 9 -5 7 -11 -4
-19z m-246 -28 c-10 -9 -11 -8 -5 6 3 10 9 15 12 12 3 -3 0 -11 -7 -18z m-204
-23 c-3 -3 -12 -4 -19 -1 -8 3 -5 6 6 6 11 1 17 -2 13 -5z m-91 -52 c-9 -9
-37 8 -31 18 5 8 11 7 21 -1 8 -6 12 -14 10 -17z m289 8 c-3 -5 -1 -10 4 -10
6 0 11 -7 11 -15 0 -8 -4 -15 -10 -15 -5 0 -10 4 -10 9 0 5 -3 16 -6 25 -3 9
-1 16 6 16 6 0 8 -4 5 -10z m-35 -15 c0 -8 -4 -15 -10 -15 -5 0 -7 7 -4 15 4
8 8 15 10 15 2 0 4 -7 4 -15z m100 -11 c0 -2 -7 -4 -15 -4 -8 0 -15 4 -15 10
0 5 7 7 15 4 8 -4 15 -8 15 -10z m-290 -24 c0 -5 -2 -10 -4 -10 -3 0 -8 5 -11
10 -3 6 -1 10 4 10 6 0 11 -4 11 -10z m10 -42 c0 -16 -3 -19 -11 -11 -6 6 -8
16 -5 22 11 17 16 13 16 -11z m665 3 c-3 -6 -14 -11 -23 -11 -13 0 -13 2 4 14
21 15 30 14 19 -3z m-560 -12 c11 -16 1 -19 -13 -3 -7 8 -8 14 -3 14 5 0 13
-5 16 -11z m-15 -82 c0 -7 -9 -20 -20 -30 -23 -20 -24 -17 -8 18 12 26 28 34
28 12z m-117 -273 c7 -7 -2 -34 -12 -34 -4 0 -7 9 -8 20 -2 19 8 26 20 14z
m207 -34 c0 -5 -5 -10 -11 -10 -5 0 -7 5 -4 10 3 6 8 10 11 10 2 0 4 -4 4 -10z
m-115 -90 c-3 -5 -10 -10 -16 -10 -5 0 -9 5 -9 10 0 6 7 10 16 10 8 0 12 -4 9
-10z m-280 -38 c14 -10 12 -55 -3 -60 -8 -2 -10 6 -5 29 l6 32 -41 -7 c-26 -4
-42 -2 -42 4 0 11 70 13 85 2z m-56 -22 l23 0 -23 -24 c-21 -22 -59 -25 -59
-6 0 5 -3 16 -7 26 -5 14 -2 16 18 11 13 -4 35 -7 48 -7z m116 -20 c3 -5 -1
-10 -9 -10 -9 0 -16 5 -16 10 0 6 4 10 9 10 6 0 13 -4 16 -10z m85 3 c0 -5 -4
-14 -9 -21 -6 -10 -10 -9 -14 7 -3 14 0 21 9 21 8 0 14 -3 14 -7z m-180 -44
c0 -5 -4 -9 -10 -9 -5 0 -10 7 -10 16 0 8 5 12 10 9 6 -3 10 -10 10 -16z m-66
-5 c24 -9 19 -24 -9 -24 -18 0 -23 4 -19 15 7 17 7 17 28 9z m136 -14 c0 -5
-4 -10 -9 -10 -6 0 -13 5 -16 10 -3 6 1 10 9 10 9 0 16 -4 16 -10z m-120 -48
c0 -20 -45 -50 -57 -38 -4 4 6 18 22 31 36 29 35 29 35 7z m470 8 c0 -5 -5
-10 -11 -10 -5 0 -7 5 -4 10 3 6 8 10 11 10 2 0 4 -4 4 -10z m-735 -40 c3 -5
-1 -10 -10 -10 -9 0 -13 5 -10 10 3 6 8 10 10 10 2 0 7 -4 10 -10z m75 -6 c0
-2 -9 -4 -21 -4 -11 0 -18 4 -14 10 5 8 35 3 35 -6z m30 -9 c0 -8 -2 -15 -4
-15 -2 0 -6 7 -10 15 -3 8 -1 15 4 15 6 0 10 -7 10 -15z m270 11 c0 -2 -7 -6
-15 -10 -8 -3 -15 -1 -15 4 0 6 7 10 15 10 8 0 15 -2 15 -4z m-110 -31 c0 -12
-7 -14 -27 -9 -53 13 -60 23 -15 24 31 0 42 -4 42 -15z m-294 -16 c4 -7 -1
-16 -10 -21 -22 -12 -20 -28 3 -28 11 0 23 -5 26 -11 5 -7 -3 -9 -21 -7 -26 3
-29 7 -27 35 2 26 -1 32 -20 36 -16 3 -14 5 10 6 17 0 35 -4 39 -10z m214 -33
c0 -5 -7 -1 -15 10 -8 10 -14 24 -14 29 0 6 6 1 14 -9 8 -11 15 -24 15 -30z
m-176 5 c17 -19 17 -19 -3 -14 -12 3 -21 12 -21 19 0 18 4 18 24 -5z m-109 -8
c18 -14 18 -15 2 -9 -10 3 -23 6 -28 6 -5 0 -9 5 -9 10 0 14 12 12 35 -7z
m220 -3 c3 -5 1 -10 -4 -10 -6 0 -11 5 -11 10 0 6 2 10 4 10 3 0 8 -4 11 -10z
m145 0 c0 -5 -2 -10 -4 -10 -3 0 -8 5 -11 10 -3 6 -1 10 4 10 6 0 11 -4 11
-10z m-109 -13 c-1 -12 -15 -9 -19 4 -3 6 1 10 8 8 6 -3 11 -8 11 -12z m-281
-30 c0 -4 -6 -2 -14 5 -8 7 -12 17 -9 22 5 8 23 -12 23 -27z m364 2 c-3 -5
-10 -7 -15 -3 -5 3 -7 10 -3 15 3 5 10 7 15 3 5 -3 7 -10 3 -15z m-184 -13 c0
-3 -4 -8 -10 -11 -5 -3 -10 -1 -10 4 0 6 5 11 10 11 6 0 10 -2 10 -4z m90 -91
c10 -12 10 -15 -3 -15 -8 0 -17 7 -21 15 -3 8 -2 15 3 15 5 0 14 -7 21 -15z
m55 -155 c-3 -4 2 -11 11 -14 27 -10 52 -7 56 9 2 11 7 12 18 4 11 -8 12 -12
3 -16 -18 -7 -16 -23 2 -23 8 0 15 5 15 10 0 6 7 10 15 10 9 0 12 -6 9 -15 -4
-8 -1 -15 5 -15 6 0 11 12 11 26 0 14 4 23 10 19 6 -3 7 -17 4 -31 -5 -20 -3
-23 10 -18 10 4 15 12 12 19 -6 17 14 44 21 28 2 -7 21 -13 42 -13 20 0 43 6
50 13 11 10 13 9 9 -3 -3 -8 -14 -16 -26 -18 -12 -2 -20 -8 -17 -13 11 -17 35
-9 47 16 6 14 19 25 30 25 22 0 20 -20 -4 -35 -59 -35 -117 -63 -146 -68 -28
-6 -34 -3 -42 16 l-10 22 3 -24 c2 -20 -5 -26 -42 -37 -29 -8 -50 -10 -62 -4
-12 7 -21 5 -29 -5 -8 -9 -19 -11 -33 -6 -12 5 -28 6 -34 4 -7 -3 -13 0 -13 7
0 6 5 8 10 5 6 -3 10 1 10 9 0 10 -6 13 -16 9 -12 -4 -15 -2 -12 8 2 8 20 17
39 20 19 4 28 7 22 8 -23 2 -14 21 15 33 21 9 23 12 10 15 -10 3 -18 13 -18
24 0 11 5 17 10 14 6 -4 8 -10 5 -15z m-625 -39 c0 -10 8 -21 18 -24 11 -2 21
-14 25 -25 4 -20 3 -20 -16 -10 -12 7 -26 12 -31 13 -4 0 -9 17 -11 37 -1 21
2 35 7 32 4 -3 8 -13 8 -23z m123 11 c-10 -10 -20 -14 -22 -9 -2 5 3 13 10 18
24 15 30 10 12 -9z m336 -1 c14 -25 49 -33 59 -14 7 12 10 12 21 -1 9 -11 10
-16 2 -16 -6 0 -11 -6 -11 -13 0 -9 -12 -14 -30 -15 -18 0 -30 4 -30 12 0 7
-9 22 -20 34 -22 23 -25 32 -10 32 5 0 14 -8 19 -19z m-185 -56 c-4 -8 -7 -15
-9 -15 -2 0 -5 7 -9 15 -3 9 0 15 9 15 9 0 12 -6 9 -15z m-84 -15 c12 -8 11
-10 -7 -10 -12 0 -25 5 -28 10 -8 13 15 13 35 0z m340 -10 c0 -5 -7 -7 -15 -4
-8 4 -15 8 -15 10 0 2 7 4 15 4 8 0 15 -4 15 -10z m-780 -10 c0 -5 -4 -10 -10
-10 -5 0 -10 5 -10 10 0 6 5 10 10 10 6 0 10 -4 10 -10z m794 -41 c-6 -11 -24
-2 -24 11 0 5 7 7 15 4 8 -4 12 -10 9 -15z m-444 -19 c8 -5 11 -10 5 -10 -5 0
-17 5 -25 10 -8 5 -10 10 -5 10 6 0 17 -5 25 -10z m-256 -14 c9 3 16 2 16 -4
0 -5 -11 -12 -25 -14 -14 -3 -25 -4 -25 -2 0 1 -3 11 -7 21 -6 15 -4 16 9 5 8
-7 23 -10 32 -6z m59 -6 c-3 -11 -9 -17 -14 -14 -14 8 -10 34 5 34 9 0 12 -7
9 -20z m-198 -20 c-19 -21 -35 -18 -35 6 0 9 10 14 27 14 25 0 26 -1 8 -20z
m237 -2 c-8 -8 -7 -15 6 -24 11 -9 13 -13 4 -14 -7 0 -12 -8 -11 -17 5 -52 0
-65 -23 -57 -32 9 -34 12 -16 27 24 18 33 57 14 57 -9 0 -16 -9 -16 -20 0 -11
-4 -20 -10 -20 -5 0 -10 -9 -10 -19 0 -36 -19 -32 -29 6 -11 40 -7 53 11 35
18 -18 28 -14 27 11 0 12 -3 16 -6 9 -5 -14 -23 -7 -23 10 0 6 8 8 19 5 10 -2
29 4 42 14 25 19 41 17 21 -3z m168 10 c0 -4 -9 -8 -20 -8 -11 0 -20 4 -20 9
0 6 9 9 20 8 11 -1 20 -5 20 -9z m-100 -8 c0 -5 -9 -10 -20 -10 -11 0 -20 5
-20 10 0 6 9 10 20 10 11 0 20 -4 20 -10z m-210 -26 c0 -17 17 -19 23 -1 2 6
8 9 13 4 4 -4 1 -15 -8 -23 -12 -13 -20 -14 -37 -5 -21 11 -27 31 -15 44 10 9
24 -2 24 -19z m910 -4 c0 -5 -5 -10 -11 -10 -5 0 -7 5 -4 10 3 6 8 10 11 10 2
0 4 -4 4 -10z m-940 -50 c0 -5 -4 -10 -10 -10 -5 0 -10 5 -10 10 0 6 5 10 10
10 6 0 10 -4 10 -10z"/>
<path d="M3900 3460 c0 -5 5 -10 10 -10 6 0 10 5 10 10 0 6 -4 10 -10 10 -5 0
-10 -4 -10 -10z"/>
<path d="M4110 5100 c0 -5 5 -10 10 -10 6 0 10 5 10 10 0 6 -4 10 -10 10 -5 0
-10 -4 -10 -10z"/>
<path d="M3910 5093 c0 -6 8 -17 18 -24 16 -13 16 -13 2 6 -8 11 -16 22 -17
24 -2 2 -3 0 -3 -6z"/>
<path d="M4081 5064 c0 -11 3 -14 6 -6 3 7 2 16 -1 19 -3 4 -6 -2 -5 -13z"/>
<path d="M4113 5056 c3 -8 1 -17 -6 -20 -7 -2 -4 -5 6 -5 11 -1 17 6 17 19 0
11 -5 20 -11 20 -6 0 -9 -6 -6 -14z"/>
<path d="M3921 4974 c0 -11 3 -14 6 -6 3 7 2 16 -1 19 -3 4 -6 -2 -5 -13z"/>
<path d="M3745 4870 c3 -5 8 -10 11 -10 2 0 4 5 4 10 0 6 -5 10 -11 10 -5 0
-7 -4 -4 -10z"/>
<path d="M3770 4845 c0 -10 7 -15 18 -13 21 4 19 22 -2 26 -10 2 -16 -3 -16
-13z"/>
<path d="M3859 4738 c-7 -32 -5 -38 11 -38 20 0 21 31 2 38 -7 2 -12 2 -13 0z"/>
<path d="M3955 4580 c-4 -6 3 -10 14 -10 25 0 27 6 6 13 -8 4 -17 2 -20 -3z"/>
<path d="M4010 4520 c0 -11 -6 -20 -12 -20 -7 0 -22 -8 -33 -17 -14 -11 -15
-14 -3 -10 13 4 16 -1 16 -29 0 -42 7 -51 26 -35 8 7 25 9 40 5 15 -3 26 -2
26 4 0 5 -9 12 -20 15 -18 5 -19 9 -9 33 7 20 7 30 0 32 -6 2 -11 12 -11 23 0
10 -4 19 -10 19 -5 0 -10 -9 -10 -20z m20 -29 c0 -5 -7 -14 -15 -21 -8 -7 -15
-22 -16 -34 0 -11 -3 -15 -6 -8 -6 16 16 72 28 72 5 0 9 -4 9 -9z"/>
<path d="M3745 4510 c-3 -5 -1 -10 4 -10 6 0 11 5 11 10 0 6 -2 10 -4 10 -3 0
-8 -4 -11 -10z"/>
<path d="M3910 4499 c0 -5 5 -7 10 -4 6 3 10 8 10 11 0 2 -4 4 -10 4 -5 0 -10
-5 -10 -11z"/>
<path d="M3516 4485 c-3 -9 -5 -29 -5 -43 1 -21 2 -23 6 -7 3 11 9 25 14 30 4
6 4 17 0 24 -6 10 -10 9 -15 -4z"/>
<path d="M3930 4440 c0 -11 5 -20 10 -20 6 0 10 9 10 20 0 11 -4 20 -10 20 -5
0 -10 -9 -10 -20z"/>
<path d="M3650 4420 c36 -11 50 -11 50 0 0 6 -17 10 -37 9 -34 -1 -35 -2 -13
-9z"/>
<path d="M4115 4420 c3 -6 17 -10 31 -10 20 0 24 -5 24 -31 0 -20 4 -29 13
-26 6 2 11 14 9 25 -2 12 2 22 9 22 8 0 9 3 0 13 -13 16 -95 22 -86 7z"/>
<path d="M3905 4410 c-3 -5 1 -10 10 -10 9 0 13 5 10 10 -3 6 -8 10 -10 10 -2
0 -7 -4 -10 -10z"/>
<path d="M3560 4406 c0 -9 30 -14 35 -6 4 6 -3 10 -14 10 -12 0 -21 -2 -21 -4z"/>
<path d="M3937 4390 c-9 -11 -17 -27 -17 -35 0 -24 37 4 43 32 5 28 -3 29 -26
3z"/>
<path d="M3855 4390 c3 -5 8 -10 11 -10 2 0 4 5 4 10 0 6 -5 10 -11 10 -5 0
-7 -4 -4 -10z"/>
<path d="M4035 4390 c-3 -5 1 -10 10 -10 9 0 13 5 10 10 -3 6 -8 10 -10 10 -2
0 -7 -4 -10 -10z"/>
<path d="M4085 4392 c-5 -4 -11 -22 -13 -39 -2 -25 1 -33 12 -33 19 0 21 16 4
23 -8 4 -7 6 3 6 9 1 19 12 21 26 5 25 -7 32 -27 17z"/>
<path d="M4151 4374 c0 -11 3 -14 6 -6 3 7 2 16 -1 19 -3 4 -6 -2 -5 -13z"/>
<path d="M3480 4340 c-8 -5 -12 -12 -9 -15 4 -3 12 1 19 10 14 17 11 19 -10 5z"/>
<path d="M3820 4339 c0 -5 5 -7 10 -4 6 3 10 8 10 11 0 2 -4 4 -10 4 -5 0 -10
-5 -10 -11z"/>
<path d="M4170 4320 c-8 -5 -12 -11 -10 -13 11 -10 80 -15 80 -6 0 5 -8 9 -18
9 -10 0 -22 4 -28 10 -5 5 -15 6 -24 0z"/>
<path d="M4078 4298 c17 -8 26 -8 34 0 9 9 4 12 -22 11 -33 0 -34 -1 -12 -11z"/>
<path d="M3821 4287 c-17 -17 -13 -31 4 -17 12 10 15 10 15 -3 0 -8 -6 -18
-12 -20 -10 -4 -10 -6 -1 -6 15 -1 5 -33 -14 -44 -19 -11 -16 -24 6 -30 14 -3
18 -1 14 9 -3 9 3 14 18 15 17 1 19 3 7 6 -21 5 -24 33 -5 33 7 0 18 -5 25
-12 9 -9 12 -8 12 5 0 12 -8 17 -27 17 -24 1 -25 2 -10 11 22 13 22 21 -2 36
-14 9 -21 9 -30 0z"/>
<path d="M3445 4279 c-4 -6 -5 -12 -2 -15 2 -3 7 2 10 11 7 17 1 20 -8 4z"/>
<path d="M3773 4282 c-6 -4 -11 -16 -10 -26 1 -13 -12 -27 -43 -44 -44 -24
-44 -24 -11 -18 18 3 37 6 42 6 5 0 9 8 9 17 0 13 3 14 12 5 7 -7 16 -12 20
-12 11 0 10 38 -2 45 -5 3 -7 12 -3 20 6 17 3 18 -14 7z"/>
<path d="M4120 4273 c0 -5 4 -14 9 -21 7 -11 9 -11 14 1 3 8 3 18 0 21 -9 8
-23 7 -23 -1z"/>
<path d="M3431 4234 c0 -11 3 -14 6 -6 3 7 2 16 -1 19 -3 4 -6 -2 -5 -13z"/>
<path d="M3680 4240 c0 -5 4 -10 9 -10 6 0 13 5 16 10 3 6 -1 10 -9 10 -9 0
-16 -4 -16 -10z"/>
<path d="M4083 4224 c-3 -8 -1 -20 5 -26 15 -15 43 8 35 28 -7 19 -32 18 -40
-2z"/>
<path d="M3917 4204 c4 -12 3 -15 -5 -10 -8 4 -16 -3 -22 -19 -14 -36 -13 -45
5 -45 8 0 15 9 15 21 0 11 5 17 10 14 6 -3 10 5 10 19 0 14 -4 28 -10 31 -6 4
-7 -1 -3 -11z"/>
<path d="M3630 4193 c0 -10 -3 -28 -6 -40 -5 -17 -2 -23 9 -23 19 0 24 15 19
52 -5 30 -22 39 -22 11z"/>
<path d="M3970 4190 c0 -5 5 -10 10 -10 6 0 10 5 10 10 0 6 -4 10 -10 10 -5 0
-10 -4 -10 -10z"/>
<path d="M3376 4174 c-5 -14 -4 -15 9 -4 17 14 19 20 6 20 -5 0 -12 -7 -15
-16z"/>
<path d="M3430 4180 c0 -5 5 -10 10 -10 6 0 10 5 10 10 0 6 -4 10 -10 10 -5 0
-10 -4 -10 -10z"/>
<path d="M2800 4118 c0 -4 14 -8 30 -8 17 0 30 2 30 4 0 2 -13 6 -30 8 -16 3
-30 1 -30 -4z"/>
<path d="M2715 4110 c-3 -6 1 -7 9 -4 18 7 21 14 7 14 -6 0 -13 -4 -16 -10z"/>
<path d="M3516 4101 c-4 -5 3 -7 14 -4 23 6 26 13 6 13 -8 0 -17 -4 -20 -9z"/>
<path d="M3382 4058 c-13 -24 -13 -70 -1 -62 4 2 7 12 7 22 -1 9 2 27 6 40 4
12 6 22 3 22 -2 0 -9 -10 -15 -22z"/>
<path d="M3528 4073 c7 -3 16 -2 19 1 4 3 -2 6 -13 5 -11 0 -14 -3 -6 -6z"/>
<path d="M3410 4040 c0 -5 5 -10 11 -10 5 0 7 5 4 10 -3 6 -8 10 -11 10 -2 0
-4 -4 -4 -10z"/>
<path d="M3026 4015 c4 -8 10 -12 15 -9 11 6 2 24 -11 24 -5 0 -7 -7 -4 -15z"/>
<path d="M2585 3960 c-3 -5 -1 -10 4 -10 6 0 11 5 11 10 0 6 -2 10 -4 10 -3 0
-8 -4 -11 -10z"/>
<path d="M3195 3880 c4 -6 11 -8 16 -5 14 9 11 15 -7 15 -8 0 -12 -5 -9 -10z"/>
<path d="M2409 3863 c-13 -15 -12 -15 9 -4 23 12 28 21 13 21 -5 0 -15 -7 -22
-17z"/>
<path d="M3293 3554 c-5 -13 -7 -13 -14 -2 -6 9 -9 8 -9 -7 0 -17 7 -21 42
-21 30 -1 37 1 25 8 -10 5 -17 16 -17 23 0 20 -19 19 -27 -1z"/>
<path d="M2290 3535 c-7 -8 -9 -15 -6 -15 4 0 14 7 22 15 9 8 11 15 6 15 -5 0
-15 -7 -22 -15z"/>
<path d="M2241 3523 c-1 -26 10 -35 29 -22 13 7 12 9 -2 9 -9 0 -19 8 -21 18
-4 13 -5 12 -6 -5z"/>
<path d="M2711 3488 c1 -18 3 -25 6 -15 2 9 8 17 13 17 4 0 10 7 14 15 4 10
-1 15 -14 15 -16 0 -20 -6 -19 -32z"/>
<path d="M2885 3510 c3 -5 15 -10 26 -10 10 0 19 5 19 10 0 6 -12 10 -26 10
-14 0 -23 -4 -19 -10z"/>
<path d="M2360 3496 c0 -2 9 -6 20 -9 11 -3 18 -1 14 4 -5 9 -34 13 -34 5z"/>
<path d="M2900 3455 c0 -8 -4 -15 -9 -15 -5 0 -11 -6 -14 -13 -3 -8 1 -14 9
-14 19 0 47 33 39 46 -9 16 -25 13 -25 -4z"/>
<path d="M2965 3450 c-3 -5 3 -10 14 -10 12 0 21 5 21 10 0 6 -6 10 -14 10 -8
0 -18 -4 -21 -10z"/>
<path d="M2695 3430 c3 -5 10 -10 16 -10 5 0 9 5 9 10 0 6 -7 10 -16 10 -8 0
-12 -4 -9 -10z"/>
<path d="M2940 3429 c0 -17 19 -29 46 -29 8 0 14 5 14 11 0 6 -7 8 -16 5 -10
-4 -22 1 -30 11 -12 16 -13 16 -14 2z"/>
<path d="M2605 3340 c10 -11 22 -20 27 -20 15 0 9 28 -8 34 -30 11 -37 6 -19
-14z"/>
<path d="M2560 3230 c0 -5 5 -10 10 -10 6 0 10 5 10 10 0 6 -4 10 -10 10 -5 0
-10 -4 -10 -10z"/>
<path d="M2391 3214 c0 -11 3 -14 6 -6 3 7 2 16 -1 19 -3 4 -6 -2 -5 -13z"/>
<path d="M1280 3213 c0 -5 -17 -14 -37 -20 l-38 -10 31 -2 c30 -1 64 23 50 36
-3 3 -6 2 -6 -4z"/>
<path d="M1928 3203 c7 -3 16 -2 19 1 4 3 -2 6 -13 5 -11 0 -14 -3 -6 -6z"/>
<path d="M680 3192 c0 -5 35 -14 78 -21 111 -17 130 -19 144 -10 8 6 2 9 -18
9 -18 0 -45 7 -60 15 -31 16 -144 21 -144 7z"/>
<path d="M2297 3183 c-10 -9 -9 -23 2 -23 5 0 11 7 15 15 5 15 -5 20 -17 8z"/>
<path d="M2363 3183 c9 -2 23 -2 30 0 6 3 -1 5 -18 5 -16 0 -22 -2 -12 -5z"/>
<path d="M2466 3175 c-3 -9 0 -15 9 -15 9 0 12 6 9 15 -4 8 -7 15 -9 15 -2 0
-5 -7 -9 -15z"/>
<path d="M930 3170 c0 -5 14 -10 31 -10 17 0 28 4 24 10 -3 6 -17 10 -31 10
-13 0 -24 -4 -24 -10z"/>
<path d="M1000 3172 c0 -12 138 -14 175 -3 23 7 5 9 -72 10 -57 1 -103 -3
-103 -7z"/>
<path d="M2230 3170 c-12 -8 -12 -10 3 -16 10 -3 21 -4 24 0 4 3 0 6 -8 6 -11
0 -11 2 1 10 8 5 11 10 5 10 -5 0 -17 -4 -25 -10z"/>
<path d="M2580 3170 c0 -6 7 -10 15 -10 8 0 15 2 15 4 0 2 -7 6 -15 10 -8 3
-15 1 -15 -4z"/>
<path d="M2628 3173 c6 -2 18 -2 25 0 6 3 1 5 -13 5 -14 0 -19 -2 -12 -5z"/>
<path d="M2320 3160 c0 -5 5 -10 11 -10 5 0 7 5 4 10 -3 6 -8 10 -11 10 -2 0
-4 -4 -4 -10z"/>
<path d="M2413 3163 c9 -2 23 -2 30 0 6 3 -1 5 -18 5 -16 0 -22 -2 -12 -5z"/>
<path d="M1296 3131 c-7 -10 22 -37 30 -28 4 3 -1 13 -9 22 -9 8 -18 11 -21 6z"/>
<path d="M1890 3109 c-47 -4 -130 -8 -185 -8 -97 -1 -140 -11 -116 -25 6 -4
11 -2 11 3 0 6 18 11 41 11 26 0 38 -4 33 -11 -3 -6 -17 -9 -30 -6 -14 2 -27
0 -30 -4 -3 -5 6 -9 19 -9 36 0 92 -25 77 -35 -7 -4 -15 -3 -19 3 -3 6 -35 13
-71 17 -56 5 -63 4 -48 -7 9 -8 18 -25 21 -38 4 -22 4 -22 6 -4 0 13 10 24 21
27 18 5 20 2 14 -28 -5 -29 -3 -33 22 -39 21 -6 31 -3 41 10 10 14 16 15 25 6
9 -9 9 -12 0 -12 -7 0 -12 -7 -12 -15 0 -8 -7 -15 -16 -15 -11 0 -14 -6 -10
-22 3 -13 3 -18 0 -11 -6 13 -70 -1 -94 -22 -9 -7 -33 -11 -63 -8 -26 2 -55 0
-65 -5 -10 -5 -33 -4 -57 4 -22 7 -36 13 -32 13 5 1 1 8 -8 17 -9 9 -19 13
-23 9 -4 -4 -2 -10 5 -12 9 -3 9 -12 2 -30 -8 -21 -7 -24 5 -20 10 4 16 -2 18
-16 3 -23 24 -22 22 1 -2 13 24 16 50 6 9 -3 16 -12 16 -20 0 -10 9 -12 33 -8
24 4 28 3 17 -5 -13 -9 -11 -11 7 -11 16 0 20 5 16 20 -7 25 5 26 23 3 12 -17
14 -17 28 4 14 18 19 20 41 10 32 -15 32 -23 0 -31 -15 -4 -23 -11 -19 -17 3
-6 14 -9 24 -6 10 2 24 1 31 -4 10 -6 6 -9 -13 -9 -16 0 -28 -4 -28 -10 0 -5
19 -10 43 -10 24 0 48 -5 55 -12 9 -9 15 -8 27 8 14 19 14 18 15 -3 0 -14 -6
-23 -16 -23 -17 0 -14 -22 4 -28 7 -2 12 4 12 12 0 27 29 30 55 6 l23 -22 7
22 c5 17 9 19 15 10 6 -10 14 -8 35 8 21 17 31 19 47 11 16 -9 20 -7 25 10 6
25 33 28 33 5 0 -14 3 -14 15 -4 12 10 18 10 29 1 11 -9 16 -9 21 0 6 8 10 8
16 -2 6 -10 15 -10 43 -2 20 6 36 7 36 2 0 -4 7 -6 15 -3 8 4 15 1 15 -5 0 -7
-7 -14 -15 -17 -8 -4 -15 -12 -15 -20 0 -10 8 -12 30 -7 34 6 38 -2 13 -30
-17 -19 -17 -20 8 -14 28 7 49 -9 64 -48 4 -12 9 -15 12 -8 2 6 -3 23 -12 36
-18 29 -10 64 11 46 7 -6 18 -8 24 -4 5 3 10 -1 10 -9 0 -9 -6 -16 -12 -16 -7
0 -2 -7 11 -16 16 -12 22 -23 18 -40 -2 -13 1 -25 8 -28 14 -5 12 33 -2 59
-15 26 -4 65 18 65 23 0 25 -16 3 -28 -14 -8 -14 -10 0 -21 9 -8 16 -26 16
-42 0 -16 5 -29 10 -29 6 0 10 -10 10 -22 l0 -22 16 22 c17 24 43 29 62 10 9
-9 12 -9 12 0 0 7 -4 12 -9 12 -5 0 -12 12 -15 26 -6 22 -11 25 -36 22 -36 -5
-47 15 -25 48 9 13 11 24 5 24 -5 0 -10 9 -10 20 0 17 -4 19 -27 14 -16 -4
-33 -13 -39 -20 -9 -11 -13 -10 -21 9 -10 21 -9 22 38 21 68 -2 71 -3 64 -14
-4 -6 5 -10 20 -10 14 0 24 4 21 9 -3 5 0 14 8 20 11 9 15 9 19 -1 3 -9 7 -7
12 6 6 13 3 21 -9 28 -14 8 -14 11 -2 24 8 8 19 14 24 14 6 0 13 6 16 13 5 10
7 10 12 0 3 -7 15 -13 27 -13 17 0 19 2 8 9 -8 5 -12 19 -9 35 3 14 2 23 -2
21 -12 -7 -77 61 -83 87 -5 19 0 16 26 -15 37 -43 47 -46 47 -13 0 27 23 50
42 43 8 -4 7 -6 -4 -6 -20 -1 -36 -49 -21 -60 6 -3 15 -16 22 -29 7 -13 20
-22 29 -21 25 3 52 -11 52 -26 0 -8 12 -15 28 -17 24 -3 27 -7 24 -35 -2 -31
12 -46 20 -22 2 5 11 7 21 3 12 -4 16 -13 12 -25 -4 -12 -1 -21 9 -25 30 -12
16 -24 -28 -24 -39 0 -44 -3 -49 -26 -3 -18 -1 -22 6 -15 8 8 17 5 33 -10 14
-13 24 -17 29 -10 3 6 1 11 -6 11 -8 0 -8 4 1 15 7 9 21 13 34 9 29 -7 124 45
104 57 -10 7 -9 9 5 9 9 0 17 -7 17 -15 0 -23 30 -65 46 -65 9 0 14 11 14 30
0 18 5 30 13 30 8 0 12 -14 12 -40 0 -35 -2 -39 -20 -34 -20 7 -20 6 -1 -14
14 -17 22 -19 36 -10 14 9 16 15 8 28 -7 10 -8 33 -3 56 6 34 8 36 15 18 14
-36 30 -39 56 -9 23 27 24 27 24 6 0 -18 4 -20 28 -15 39 10 42 13 35 32 -6
15 -4 14 12 -2 15 -14 16 -21 7 -24 -10 -3 -8 -8 5 -18 24 -18 44 -18 37 1 -4
9 0 15 9 15 22 0 30 17 17 37 -11 17 -11 17 -6 0 5 -15 1 -18 -16 -15 -13 2
-23 10 -24 18 0 9 1 10 3 3 8 -23 23 -14 23 14 0 18 3 24 10 17 12 -12 70 -6
70 7 0 5 -13 9 -30 9 -23 0 -30 4 -30 20 0 13 -7 20 -20 20 -24 0 -27 15 -4
24 8 3 12 10 9 16 -3 5 -1 10 4 10 6 0 11 7 11 15 0 13 -4 13 -22 3 -13 -7
-26 -17 -29 -21 -3 -5 -14 -7 -24 -5 -10 2 -20 -3 -22 -9 -3 -7 0 -13 6 -13 6
0 11 -7 11 -15 0 -8 -4 -15 -10 -15 -5 0 -10 6 -10 14 0 7 -13 19 -30 26 -50
21 -38 38 23 32 43 -4 50 -2 40 9 -7 7 -13 28 -13 47 0 30 -2 33 -22 26 -19
-6 -21 -5 -11 8 7 8 9 19 5 23 -4 5 10 -2 30 -14 42 -25 73 -21 81 9 3 11 1
20 -4 20 -5 0 -9 -4 -9 -9 0 -5 -12 -12 -27 -16 -21 -5 -31 -1 -49 20 -17 20
-28 25 -46 20 -23 -6 -23 -6 2 14 14 11 21 21 15 22 -5 0 1 4 15 8 17 5 24 13
22 25 -3 16 2 18 32 14 20 -2 36 0 36 4 0 10 -1262 8 -1380 -3z m1273 -17
c-21 -2 -30 -8 -27 -16 3 -7 -2 -18 -9 -25 -12 -9 -15 -6 -19 18 -4 28 -2 30
31 33 20 2 41 1 46 -2 6 -3 -4 -6 -22 -8z m-943 -7 c-33 -19 -49 -19 -24 0 10
8 26 14 34 14 9 0 4 -6 -10 -14z m433 8 c-7 -2 -19 -2 -25 0 -7 3 -2 5 12 5
14 0 19 -2 13 -5z m-473 -43 c0 -5 -7 -10 -16 -10 -8 0 -12 5 -9 10 3 6 10 10
16 10 5 0 9 -4 9 -10z m-315 -10 c-3 -5 -12 -10 -18 -10 -7 0 -6 4 3 10 19 12
23 12 15 0z m745 0 c0 -5 -2 -10 -4 -10 -3 0 -8 5 -11 10 -3 6 -1 10 4 10 6 0
11 -4 11 -10z m-690 -21 c0 -11 -4 -17 -10 -14 -5 3 -10 13 -10 21 0 8 5 14
10 14 6 0 10 -9 10 -21z m-230 -22 c0 -20 0 -20 -14 -2 -8 11 -12 23 -9 28 8
13 23 -3 23 -26z m1180 29 c0 -3 -4 -8 -10 -11 -5 -3 -10 -1 -10 4 0 6 5 11
10 11 6 0 10 -2 10 -4z m-370 -16 c0 -5 -4 -10 -10 -10 -5 0 -10 5 -10 10 0 6
5 10 10 10 6 0 10 -4 10 -10z m220 0 c0 -5 -4 -10 -10 -10 -5 0 -10 -9 -10
-20 0 -11 -4 -20 -9 -20 -13 0 -10 43 4 52 14 11 25 10 25 -2z m-694 -37 c-11
-11 -17 4 -9 23 7 18 8 18 11 1 2 -10 1 -21 -2 -24z m1121 13 c-7 -7 -24 -17
-37 -21 -14 -4 -28 -13 -32 -19 -4 -6 -10 -7 -14 -4 -9 10 22 38 48 43 13 3
24 9 26 15 2 6 8 8 13 4 5 -3 3 -11 -4 -18z m-522 4 c-3 -5 -10 -10 -16 -10
-5 0 -9 5 -9 10 0 6 7 10 16 10 8 0 12 -4 9 -10z m347 -22 c-9 -9 -12 -7 -12
12 0 19 3 21 12 12 9 -9 9 -15 0 -24z m68 16 c0 -8 -5 -12 -10 -9 -6 4 -8 11
-5 16 9 14 15 11 15 -7z m-393 -56 c-3 -7 -5 -2 -5 12 0 14 2 19 5 13 2 -7 2
-19 0 -25z m373 2 c-8 -5 -22 -10 -30 -10 -13 0 -13 1 0 10 8 5 22 10 30 10
13 0 13 -1 0 -10z m27 -12 c-3 -8 -6 -5 -6 6 -1 11 2 17 5 13 3 -3 4 -12 1
-19z m-247 -17 c0 -5 3 -18 6 -28 5 -16 4 -16 -10 1 -18 23 -20 36 -6 36 6 0
10 -4 10 -9z m240 -10 c0 -5 -7 -12 -16 -15 -14 -5 -15 -4 -4 9 14 17 20 19
20 6z m48 -7 c21 -6 21 -7 5 -19 -10 -8 -14 -17 -9 -22 5 -4 11 -2 13 5 6 15
23 16 23 1 0 -7 10 -20 22 -31 17 -15 31 -17 66 -12 43 6 44 6 33 -15 -13 -24
-26 -29 -17 -6 3 8 1 15 -4 15 -6 0 -10 -9 -10 -20 0 -15 -7 -20 -29 -20 -17
0 -33 -4 -36 -10 -10 -16 -19 -11 -33 18 -8 17 -9 28 -2 30 5 2 10 11 10 19 0
9 -6 13 -15 10 -8 -4 -17 -1 -21 4 -4 7 -10 7 -17 0 -15 -15 -27 -14 -27 4 0
7 8 19 18 24 15 9 15 12 2 21 -17 11 -6 13 28 4z m-1344 -58 c25 -34 36 -73
16 -61 -6 4 -8 11 -5 16 4 5 -7 21 -24 35 -30 25 -40 44 -22 44 5 0 20 -15 35
-34z m-54 4 c0 -5 -2 -10 -4 -10 -3 0 -8 5 -11 10 -3 6 -1 10 4 10 6 0 11 -4
11 -10z m1017 4 c-3 -3 -12 -4 -19 -1 -8 3 -5 6 6 6 11 1 17 -2 13 -5z m323
-14 c10 -18 8 -20 -26 -20 l-36 0 23 20 c29 24 26 24 39 0z m-212 -11 c29 -1
52 -6 52 -11 0 -19 -21 -48 -35 -48 -21 0 -19 17 3 24 9 3 -2 4 -26 2 -31 -3
-45 0 -49 10 -3 8 -11 14 -19 14 -15 0 -19 12 -7 23 3 4 11 2 18 -3 6 -5 35
-10 63 -11z m86 -11 c7 -5 4 -8 -6 -8 -12 0 -18 7 -17 23 0 15 2 17 6 7 3 -8
11 -18 17 -22z m176 2 c0 -5 -7 -10 -16 -10 -8 0 -12 5 -9 10 3 6 10 10 16 10
5 0 9 -4 9 -10z m-756 -24 c-3 -9 -10 -13 -16 -10 -5 3 -4 12 3 20 15 18 22
13 13 -10z m646 -4 c0 -4 -20 -12 -45 -18 -25 -6 -45 -7 -45 -3 0 4 13 10 30
14 16 4 32 11 36 16 6 10 24 3 24 -9z m-1060 -1 c0 -5 -16 -18 -35 -30 -19
-11 -35 -25 -35 -31 0 -6 -4 -8 -10 -5 -15 9 -12 45 4 45 7 0 19 7 26 15 14
16 50 21 50 6z m-200 -11 c0 -5 -7 -10 -15 -10 -8 0 -15 5 -15 10 0 6 7 10 15
10 8 0 15 -4 15 -10z m740 -5 c0 -8 -7 -15 -15 -15 -16 0 -20 12 -8 23 11 12
23 8 23 -8z m545 -5 c3 -5 1 -10 -4 -10 -6 0 -11 5 -11 10 0 6 2 10 4 10 3 0
8 -4 11 -10z m-1195 -4 c0 -3 -4 -8 -10 -11 -5 -3 -10 -1 -10 4 0 6 5 11 10
11 6 0 10 -2 10 -4z m1300 -8 c0 -7 -5 -20 -10 -28 -7 -12 -12 -12 -22 -2 -9
9 -9 12 0 12 7 0 12 7 12 15 0 8 5 15 10 15 6 0 10 -6 10 -12z m-860 -23 c0
-8 -4 -15 -10 -15 -5 0 -10 7 -10 15 0 8 5 15 10 15 6 0 10 -7 10 -15z m780 5
c0 -5 -2 -10 -4 -10 -3 0 -8 5 -11 10 -3 6 -1 10 4 10 6 0 11 -4 11 -10z
m-177 -30 c3 -12 0 -20 -7 -20 -6 0 -12 9 -13 20 -1 11 2 20 6 20 5 0 11 -9
14 -20z m-383 -110 c0 -5 -9 -10 -20 -10 -11 0 -20 5 -20 10 0 6 9 10 20 10
11 0 20 -4 20 -10z"/>
<path d="M3120 2786 c0 -8 7 -16 15 -20 10 -4 15 1 15 14 0 11 -7 20 -15 20
-8 0 -15 -6 -15 -14z"/>
<path d="M3358 3113 c7 -3 16 -2 19 1 4 3 -2 6 -13 5 -11 0 -14 -3 -6 -6z"/>
<path d="M3768 3113 c6 -2 18 -2 25 0 6 3 1 5 -13 5 -14 0 -19 -2 -12 -5z"/>
<path d="M3953 3113 c9 -2 25 -2 35 0 9 3 1 5 -18 5 -19 0 -27 -2 -17 -5z"/>
<path d="M4018 3113 c7 -3 16 -2 19 1 4 3 -2 6 -13 5 -11 0 -14 -3 -6 -6z"/>
<path d="M4078 3113 c7 -3 16 -2 19 1 4 3 -2 6 -13 5 -11 0 -14 -3 -6 -6z"/>
<path d="M1360 3081 c0 -18 18 -21 30 -6 10 13 9 15 -9 15 -11 0 -21 -4 -21
-9z"/>
<path d="M1469 3078 c-9 -36 -5 -60 15 -76 26 -20 43 -61 27 -63 -29 -5 -36
-3 -36 6 -1 26 -16 65 -25 65 -6 0 -10 -4 -10 -10 0 -5 -7 -7 -15 -4 -10 4
-15 0 -15 -14 0 -12 -9 -23 -20 -27 -21 -7 -25 -16 -13 -29 4 -3 19 7 35 24
l28 31 0 -26 c0 -14 -7 -28 -15 -31 -25 -10 -17 -27 10 -20 14 4 25 2 25 -4 0
-5 5 -10 10 -10 6 0 10 7 10 15 0 18 26 20 33 3 4 -10 6 -9 6 1 1 11 4 11 16
1 24 -20 37 -2 19 26 -9 13 -12 24 -8 24 5 0 15 -9 22 -21 9 -14 21 -19 39
-17 30 3 44 28 16 28 -22 1 -56 28 -67 55 -7 19 -8 19 -20 -3 l-12 -23 -23 25
c-20 21 -22 28 -12 40 13 15 7 36 -10 36 -5 0 -9 -1 -10 -2z"/>
<path d="M1415 3020 c-3 -5 -1 -10 4 -10 6 0 11 5 11 10 0 6 -2 10 -4 10 -3 0
-8 -4 -11 -10z"/>
<path d="M4070 3015 c0 -8 2 -15 4 -15 2 0 6 7 10 15 3 8 1 15 -4 15 -6 0 -10
-7 -10 -15z"/>
<path d="M3220 3010 c0 -5 5 -10 10 -10 6 0 10 5 10 10 0 6 -4 10 -10 10 -5 0
-10 -4 -10 -10z"/>
<path d="M4180 3000 c0 -15 7 -20 29 -20 17 0 32 4 35 8 3 5 -8 6 -25 4 -31
-5 -41 13 -11 21 13 4 11 5 -5 6 -17 1 -23 -5 -23 -19z"/>
<path d="M3300 2971 c0 -5 10 -11 23 -15 38 -10 43 -7 13 9 -33 17 -36 18 -36
6z"/>
<path d="M3375 2968 c-4 -10 -4 -26 0 -35 8 -17 8 -17 12 0 3 9 3 25 0 35 -4
16 -4 16 -12 0z"/>
<path d="M3420 2970 c-13 -8 -12 -10 3 -10 9 0 17 5 17 10 0 12 -1 12 -20 0z"/>
<path d="M1190 2945 c0 -4 10 -18 23 -31 16 -17 33 -24 61 -24 31 0 36 2 27
14 -6 7 -9 21 -5 30 3 9 1 16 -5 16 -6 0 -11 -9 -11 -20 0 -11 -5 -20 -11 -20
-6 0 -9 7 -5 15 3 10 -1 15 -12 15 -9 0 -27 3 -39 6 -13 4 -23 3 -23 -1z"/>
<path d="M3225 2941 c-7 -12 12 -24 25 -16 11 7 4 25 -10 25 -5 0 -11 -4 -15
-9z"/>
<path d="M1140 2929 c0 -5 5 -7 10 -4 6 3 10 8 10 11 0 2 -4 4 -10 4 -5 0 -10
-5 -10 -11z"/>
<path d="M3280 2931 c0 -5 9 -13 20 -16 11 -3 20 -11 20 -16 0 -5 9 -9 20 -9
22 0 25 28 5 42 -14 11 -65 10 -65 -1z"/>
<path d="M3474 2903 c1 -19 14 -33 31 -33 6 0 4 4 -4 9 -8 5 -11 16 -8 25 4
10 1 16 -7 16 -8 0 -13 -8 -12 -17z"/>
<path d="M1170 2890 c0 -5 5 -10 11 -10 5 0 7 5 4 10 -3 6 -8 10 -11 10 -2 0
-4 -4 -4 -10z"/>
<path d="M945 2880 c3 -5 8 -10 11 -10 2 0 4 5 4 10 0 6 -5 10 -11 10 -5 0 -7
-4 -4 -10z"/>
<path d="M3437 2883 c-4 -3 -7 -13 -7 -22 1 -13 3 -13 11 2 11 19 8 33 -4 20z"/>
<path d="M1300 2866 c0 -8 5 -18 10 -21 6 -3 10 0 10 9 0 8 6 17 13 19 6 3 2
6 -10 6 -14 1 -23 -5 -23 -13z"/>
<path d="M1166 2861 c-4 -7 -5 -15 -2 -18 9 -9 19 4 14 18 -4 11 -6 11 -12 0z"/>
<path d="M3330 2860 c0 -5 9 -10 21 -10 11 0 17 5 14 10 -3 6 -13 10 -21 10
-8 0 -14 -4 -14 -10z"/>
<path d="M3390 2860 c0 -5 5 -10 10 -10 6 0 10 5 10 10 0 6 -4 10 -10 10 -5 0
-10 -4 -10 -10z"/>
<path d="M1013 2835 c-21 -11 -21 -11 10 -23 36 -14 37 -13 23 13 -9 17 -15
19 -33 10z"/>
<path d="M3460 2835 c0 -8 5 -15 10 -15 6 0 10 7 10 15 0 8 -4 15 -10 15 -5 0
-10 -7 -10 -15z"/>
<path d="M3530 2840 c0 -5 7 -10 16 -10 8 0 12 5 9 10 -3 6 -10 10 -16 10 -5
0 -9 -4 -9 -10z"/>
<path d="M813 2810 c0 -16 4 -30 8 -30 8 0 5 47 -3 55 -3 3 -5 -8 -5 -25z"/>
<path d="M3580 2830 c0 -5 5 -10 10 -10 6 0 10 5 10 10 0 6 -4 10 -10 10 -5 0
-10 -4 -10 -10z"/>
<path d="M1410 2816 c0 -9 7 -16 16 -16 9 0 14 5 12 12 -6 18 -28 21 -28 4z"/>
<path d="M2602 2809 c-7 -11 -10 -29 -7 -40 5 -15 2 -19 -14 -19 -12 0 -21 -7
-21 -15 0 -8 -9 -20 -20 -27 -28 -18 -25 -47 5 -58 14 -5 25 -14 25 -19 0 -5
8 -11 18 -15 9 -3 22 -9 29 -12 7 -3 10 2 6 15 -3 12 -9 21 -14 21 -5 0 -6 8
-3 18 5 15 4 15 -10 -2 -15 -18 -16 -18 -35 5 -17 20 -18 26 -6 35 8 6 12 14
8 17 -3 4 0 7 9 7 8 0 25 11 37 24 18 19 21 29 14 55 -8 30 -8 31 -21 10z"/>
<path d="M3365 2821 c-3 -5 -1 -12 5 -16 5 -3 10 1 10 9 0 18 -6 21 -15 7z"/>
<path d="M846 2804 c-5 -14 -4 -15 9 -4 17 14 19 20 6 20 -5 0 -12 -7 -15 -16z"/>
<path d="M3412 2804 c-10 -12 -10 -14 2 -14 17 0 30 16 19 23 -5 3 -14 -1 -21
-9z"/>
<path d="M1072 2798 c6 -18 25 -21 25 -3 0 8 -7 15 -14 15 -8 0 -13 -5 -11
-12z"/>
<path d="M1260 2785 c-11 -13 -10 -14 4 -9 9 3 16 10 16 15 0 13 -6 11 -20 -6z"/>
<path d="M1553 2776 c-28 -13 -30 -30 -3 -21 14 5 20 2 20 -9 0 -9 4 -16 8
-16 5 0 9 14 9 30 0 33 -1 33 -34 16z"/>
<path d="M2517 2784 c-4 -4 -4 -10 -1 -15 6 -10 34 0 34 12 0 10 -24 12 -33 3z"/>
<path d="M2670 2776 c0 -9 -7 -16 -15 -16 -8 0 -15 -7 -15 -15 0 -9 9 -15 25
-15 26 0 33 -14 15 -25 -6 -4 -17 -1 -25 5 -12 10 -15 9 -15 -9 0 -11 5 -21
11 -21 6 0 8 -9 4 -20 -5 -16 -2 -20 15 -20 12 0 18 4 15 11 -4 5 0 25 9 43
19 40 15 90 -8 94 -9 2 -16 -3 -16 -12z"/>
<path d="M1160 2760 c0 -5 5 -10 10 -10 6 0 10 5 10 10 0 6 -4 10 -10 10 -5 0
-10 -4 -10 -10z"/>
<path d="M3550 2760 c0 -5 5 -10 11 -10 5 0 7 5 4 10 -3 6 -8 10 -11 10 -2 0
-4 -4 -4 -10z"/>
<path d="M1117 2744 c6 -15 23 -19 23 -5 0 5 -7 11 -14 14 -10 4 -13 1 -9 -9z"/>
<path d="M3360 2739 c0 -5 -10 -9 -22 -10 -16 0 -18 -2 -8 -6 8 -3 18 -11 22
-17 5 -7 8 -5 8 6 0 11 6 15 20 11 11 -3 20 -1 20 5 0 5 -9 12 -20 15 -11 3
-20 1 -20 -4z"/>
<path d="M1510 2729 c0 -5 4 -9 9 -9 5 0 16 -3 25 -6 9 -3 16 -2 16 4 0 5 -11
12 -25 14 -14 3 -25 1 -25 -3z"/>
<path d="M1147 2724 c-10 -11 3 -24 24 -24 10 0 19 5 19 11 0 6 -7 8 -16 5 -8
-3 -12 -2 -9 4 7 11 -8 14 -18 4z"/>
<path d="M1402 2716 c7 -8 15 -12 17 -11 5 6 -10 25 -20 25 -5 0 -4 -6 3 -14z"/>
<path d="M1653 2723 c-21 -8 -15 -22 7 -16 11 3 20 9 20 14 0 10 -8 10 -27 2z"/>
<path d="M3438 2723 c7 -3 16 -2 19 1 4 3 -2 6 -13 5 -11 0 -14 -3 -6 -6z"/>
<path d="M3506 2709 c-16 -16 -17 -19 -4 -19 9 0 19 7 22 16 9 24 4 24 -18 3z"/>
<path d="M1910 2715 c0 -5 5 -17 10 -25 5 -8 10 -10 10 -5 0 6 -5 17 -10 25
-5 8 -10 11 -10 5z"/>
<path d="M2590 2699 c0 -5 5 -7 10 -4 6 3 10 8 10 11 0 2 -4 4 -10 4 -5 0 -10
-5 -10 -11z"/>
<path d="M3430 2699 c0 -5 5 -7 10 -4 6 3 10 8 10 11 0 2 -4 4 -10 4 -5 0 -10
-5 -10 -11z"/>
<path d="M1580 2690 c19 -13 30 -13 30 0 0 6 -10 10 -22 10 -19 0 -20 -2 -8
-10z"/>
<path d="M1846 2674 c-11 -28 -6 -38 9 -18 8 10 15 22 15 27 0 13 -18 7 -24
-9z"/>
<path d="M1545 2653 c-2 -7 -1 -13 3 -13 17 0 52 13 52 19 0 12 -50 6 -55 -6z"/>
<path d="M1665 2660 c-3 -5 -1 -10 4 -10 6 0 11 5 11 10 0 6 -2 10 -4 10 -3 0
-8 -4 -11 -10z"/>
<path d="M2080 2660 c0 -5 4 -10 9 -10 6 0 13 5 16 10 3 6 -1 10 -9 10 -9 0
-16 -4 -16 -10z"/>
<path d="M1630 2649 c0 -5 5 -7 10 -4 6 3 10 8 10 11 0 2 -4 4 -10 4 -5 0 -10
-5 -10 -11z"/>
<path d="M3066 2645 c-3 -8 -1 -15 4 -15 13 0 22 18 11 24 -5 3 -11 -1 -15 -9z"/>
<path d="M3170 2650 c0 -5 5 -10 10 -10 6 0 10 5 10 10 0 6 -4 10 -10 10 -5 0
-10 -4 -10 -10z"/>
<path d="M1755 2640 c-3 -5 1 -10 9 -10 9 0 16 5 16 10 0 6 -4 10 -9 10 -6 0
-13 -4 -16 -10z"/>
<path d="M2488 2643 c7 -3 16 -2 19 1 4 3 -2 6 -13 5 -11 0 -14 -3 -6 -6z"/>
<path d="M3114 2638 c-5 -7 -3 -8 6 -3 7 4 16 2 21 -6 4 -7 11 -10 14 -7 10
10 -4 28 -20 28 -8 0 -17 -5 -21 -12z"/>
<path d="M1330 2636 c0 -2 7 -9 15 -16 9 -7 15 -8 15 -2 0 5 -7 12 -15 16 -8
3 -15 4 -15 2z"/>
<path d="M1500 2630 c0 -5 5 -10 11 -10 5 0 7 5 4 10 -3 6 -8 10 -11 10 -2 0
-4 -4 -4 -10z"/>
<path d="M1815 2613 c-4 -16 -8 -35 -9 -44 -2 -9 5 -21 15 -28 15 -9 19 -8 19
4 0 8 -4 15 -9 15 -5 0 -7 18 -4 40 6 45 -4 55 -12 13z"/>
<path d="M1928 2623 c7 -3 16 -2 19 1 4 3 -2 6 -13 5 -11 0 -14 -3 -6 -6z"/>
<path d="M2080 2615 c0 -8 7 -15 15 -15 20 0 19 -14 -3 -31 -9 -8 -15 -13 -13
-12 2 2 9 -2 16 -7 8 -7 19 -2 34 14 l23 24 -21 7 c-12 3 -21 10 -21 15 0 4
-7 10 -15 14 -9 3 -15 0 -15 -9z"/>
<path d="M2500 2619 c0 -5 5 -7 10 -4 6 3 10 8 10 11 0 2 -4 4 -10 4 -5 0 -10
-5 -10 -11z"/>
<path d="M1985 2610 c-3 -5 -1 -10 4 -10 6 0 11 5 11 10 0 6 -2 10 -4 10 -3 0
-8 -4 -11 -10z"/>
<path d="M3080 2610 c0 -5 7 -10 16 -10 8 0 12 5 9 10 -3 6 -10 10 -16 10 -5
0 -9 -4 -9 -10z"/>
<path d="M1587 2591 c3 -12 10 -21 15 -21 13 0 6 32 -9 37 -7 3 -9 -3 -6 -16z"/>
<path d="M2311 2594 c0 -11 3 -14 6 -6 3 7 2 16 -1 19 -3 4 -6 -2 -5 -13z"/>
<path d="M2640 2583 c0 -21 3 -24 9 -14 5 8 7 20 4 28 -8 21 -13 15 -13 -14z"/>
<path d="M1380 2596 c0 -18 58 -97 64 -87 4 6 2 11 -5 11 -6 0 -9 8 -6 19 3
14 1 18 -9 14 -8 -3 -14 1 -14 10 0 8 -7 20 -15 27 -8 7 -15 10 -15 6z"/>
<path d="M1750 2590 c0 -5 7 -10 15 -10 8 0 15 5 15 10 0 6 -7 10 -15 10 -8 0
-15 -4 -15 -10z"/>
<path d="M1840 2590 c0 -5 5 -10 11 -10 5 0 7 5 4 10 -3 6 -8 10 -11 10 -2 0
-4 -4 -4 -10z"/>
<path d="M1920 2590 c0 -5 7 -7 15 -4 8 4 15 8 15 10 0 2 -7 4 -15 4 -8 0 -15
-4 -15 -10z"/>
<path d="M2570 2580 c0 -5 8 -10 18 -10 14 0 15 -2 2 -10 -12 -8 -9 -10 13
-10 34 0 35 17 1 30 -32 12 -34 12 -34 0z"/>
<path d="M3072 2574 c10 -10 20 -15 24 -12 3 4 -5 12 -18 18 -22 12 -22 12 -6
-6z"/>
<path d="M1965 2570 c3 -5 12 -7 20 -3 21 7 19 13 -6 13 -11 0 -18 -4 -14 -10z"/>
<path d="M1477 2563 c-10 -9 -9 -23 1 -23 5 0 9 7 9 15 0 17 -1 18 -10 8z"/>
<path d="M1616 2543 c-6 -14 -5 -15 5 -6 7 7 10 15 7 18 -3 3 -9 -2 -12 -12z"/>
<path d="M2130 2540 c0 -5 5 -10 10 -10 6 0 10 5 10 10 0 6 -4 10 -10 10 -5 0
-10 -4 -10 -10z"/>
<path d="M2180 2530 c0 -5 6 -10 14 -10 8 0 18 5 21 10 3 6 -3 10 -14 10 -12
0 -21 -4 -21 -10z"/>
<path d="M2308 2513 c6 -2 12 -10 12 -16 0 -21 40 -40 56 -26 18 15 7 32 -16
26 -11 -3 -21 1 -24 9 -3 8 -13 14 -23 13 -11 0 -13 -3 -5 -6z"/>
<path d="M2430 2510 c-8 -5 -11 -12 -7 -16 4 -4 13 -2 19 4 15 15 7 24 -12 12z"/>
<path d="M2736 2511 c-4 -7 -5 -15 -2 -18 9 -9 19 4 14 18 -4 11 -6 11 -12 0z"/>
<path d="M1495 2500 c3 -5 10 -10 16 -10 5 0 9 5 9 10 0 6 -7 10 -16 10 -8 0
-12 -4 -9 -10z"/>
<path d="M1690 2499 c0 -5 5 -7 10 -4 6 3 10 8 10 11 0 2 -4 4 -10 4 -5 0 -10
-5 -10 -11z"/>
<path d="M2135 2499 c-4 -6 -5 -13 -2 -16 7 -7 27 6 27 18 0 12 -17 12 -25 -2z"/>
<path d="M1930 2480 c0 -11 5 -20 10 -20 6 0 10 9 10 20 0 11 -4 20 -10 20 -5
0 -10 -9 -10 -20z"/>
<path d="M2018 2488 c9 -9 15 -9 24 0 9 9 7 12 -12 12 -19 0 -21 -3 -12 -12z"/>
<path d="M2210 2486 c0 -2 14 -6 30 -8 17 -3 30 -1 30 4 0 4 -13 8 -30 8 -16
0 -30 -2 -30 -4z"/>
<path d="M1430 2454 c0 -70 12 -102 38 -109 14 -3 30 -1 35 4 8 8 5 11 -8 11
-14 0 -16 3 -7 12 8 8 8 17 1 30 -15 28 13 56 49 52 l27 -4 -28 9 c-19 7 -37
6 -54 -2 -21 -9 -27 -8 -39 8 -13 18 -14 17 -14 -11z m50 -58 c0 -3 -4 -8 -10
-11 -5 -3 -10 -1 -10 4 0 6 5 11 10 11 6 0 10 -2 10 -4z"/>
<path d="M1826 2465 c4 -8 8 -15 10 -15 2 0 4 7 4 15 0 8 -4 15 -10 15 -5 0
-7 -7 -4 -15z"/>
<path d="M5901 2464 c0 -11 3 -14 6 -6 3 7 2 16 -1 19 -3 4 -6 -2 -5 -13z"/>
<path d="M1890 2460 c-12 -8 -11 -10 8 -10 12 0 22 5 22 10 0 13 -11 13 -30 0z"/>
<path d="M2150 2460 c0 -5 5 -10 10 -10 6 0 10 5 10 10 0 6 -4 10 -10 10 -5 0
-10 -4 -10 -10z"/>
<path d="M2301 2461 c-9 -6 -7 -10 8 -14 12 -3 21 -1 21 3 0 14 -15 19 -29 11z"/>
<path d="M1970 2436 c0 -8 5 -18 10 -21 6 -3 10 1 10 9 0 8 -4 18 -10 21 -5 3
-10 -1 -10 -9z"/>
<path d="M1867 2423 c-4 -3 -7 -11 -7 -17 0 -6 5 -5 12 2 6 6 9 14 7 17 -3 3
-9 2 -12 -2z"/>
<path d="M2625 2400 c-8 -13 -1 -24 14 -19 6 3 7 10 2 18 -6 10 -10 10 -16 1z"/>
<path d="M1515 2390 c4 -6 11 -8 16 -5 14 9 11 15 -7 15 -8 0 -12 -5 -9 -10z"/>
<path d="M1550 2380 c0 -24 15 -27 24 -4 9 22 8 24 -9 24 -8 0 -15 -9 -15 -20z"/>
<path d="M2460 2374 c-22 -12 -23 -13 -5 -13 24 -1 50 14 38 22 -4 3 -19 -1
-33 -9z"/>
<path d="M2216 2371 c-4 -5 3 -7 14 -4 23 6 26 13 6 13 -8 0 -17 -4 -20 -9z"/>
<path d="M1800 2359 c0 -5 5 -7 10 -4 6 3 10 8 10 11 0 2 -4 4 -10 4 -5 0 -10
-5 -10 -11z"/>
<path d="M2035 2354 c17 -17 20 -34 6 -34 -5 0 -14 7 -21 15 -10 13 -15 13
-21 3 -5 -7 -3 -16 4 -20 20 -13 57 -9 63 7 4 8 16 15 27 15 33 0 7 17 -36 23
-33 5 -36 4 -22 -9z"/>
<path d="M2608 2353 c7 -3 16 -2 19 1 4 3 -2 6 -13 5 -11 0 -14 -3 -6 -6z"/>
<path d="M1955 2340 c3 -5 8 -10 11 -10 2 0 4 5 4 10 0 6 -5 10 -11 10 -5 0
-7 -4 -4 -10z"/>
<path d="M2138 2343 c7 -3 16 -2 19 1 4 3 -2 6 -13 5 -11 0 -14 -3 -6 -6z"/>
<path d="M2349 2330 c-13 -10 -19 -19 -13 -20 6 0 19 9 29 20 23 26 14 26 -16
0z"/>
<path d="M1870 2320 c-13 -8 -13 -10 2 -10 9 0 20 5 23 10 8 13 -5 13 -25 0z"/>
<path d="M1553 2313 c9 -2 25 -2 35 0 9 3 1 5 -18 5 -19 0 -27 -2 -17 -5z"/>
<path d="M2110 2309 c0 -5 5 -7 10 -4 6 3 10 8 10 11 0 2 -4 4 -10 4 -5 0 -10
-5 -10 -11z"/>
<path d="M2160 2300 c0 -5 5 -10 10 -10 6 0 10 5 10 10 0 6 -4 10 -10 10 -5 0
-10 -4 -10 -10z"/>
<path d="M2001 2274 c0 -11 3 -14 6 -6 3 7 2 16 -1 19 -3 4 -6 -2 -5 -13z"/>
<path d="M1815 2260 c-3 -5 1 -10 9 -10 9 0 16 5 16 10 0 6 -4 10 -9 10 -6 0
-13 -4 -16 -10z"/>
<path d="M2040 2266 c0 -9 30 -14 35 -6 4 6 -3 10 -14 10 -12 0 -21 -2 -21 -4z"/>
<path d="M1585 2210 c-3 -5 -1 -10 4 -10 6 0 11 5 11 10 0 6 -2 10 -4 10 -3 0
-8 -4 -11 -10z"/>
<path d="M1868 2203 c7 -3 16 -2 19 1 4 3 -2 6 -13 5 -11 0 -14 -3 -6 -6z"/>
<path d="M625 1453 c-16 -3 -35 -9 -41 -14 -6 -4 -33 -5 -62 0 -48 7 -54 6
-86 -21 -44 -36 -57 -87 -32 -128 13 -23 13 -29 2 -33 -7 -3 -20 3 -29 14 -23
26 -100 26 -126 0 -10 -10 -28 -22 -40 -26 -26 -8 -61 -50 -106 -126 -42 -72
-51 -104 -35 -124 10 -12 6 -13 -23 -8 -35 5 -35 5 -42 -39 -4 -24 -5 -59 -3
-78 2 -30 7 -35 25 -33 31 4 29 -15 -2 -23 l-25 -6 0 -404 0 -404 1426 0
c1136 0 1425 3 1421 13 -2 6 -12 11 -21 11 -9 -1 -16 2 -16 7 0 12 -47 12 -54
0 -4 -5 0 -12 6 -14 26 -11 -40 -6 -122 8 -47 8 -127 14 -178 12 -50 -1 -92 1
-92 5 0 4 15 23 34 42 30 33 38 36 88 36 30 0 58 -4 64 -9 5 -6 23 -3 44 8 34
16 35 18 37 81 1 36 5 80 8 98 13 59 -25 119 -92 148 -27 12 -33 20 -33 44 0
25 -9 36 -61 71 l-61 41 -66 -13 c-76 -14 -100 -30 -104 -68 -2 -21 -9 -27
-35 -29 -18 -2 -33 -8 -33 -13 0 -5 -11 -14 -24 -20 -14 -7 -26 -23 -29 -39
-3 -15 -22 -39 -41 -54 -20 -15 -36 -36 -36 -46 0 -24 21 -73 36 -82 6 -4 17
-21 24 -38 11 -28 50 -44 50 -21 0 5 19 0 43 -12 23 -11 62 -21 87 -21 l45 -1
3 -52 c4 -67 -8 -68 -87 -13 -31 22 -62 40 -69 40 -7 0 -29 -8 -50 -18 -51
-25 -82 -19 -82 16 0 28 -19 49 -72 82 -42 25 -151 16 -193 -16 l-31 -23 -54
41 c-103 76 -120 97 -121 147 -1 30 -3 36 -6 19 -2 -16 -11 -28 -19 -28 -8 0
-14 3 -14 8 0 4 -13 22 -30 40 -26 29 -30 31 -30 13 0 -25 2 -24 -39 -10 -22
8 -37 23 -50 53 -18 38 -18 41 -3 47 9 4 26 16 36 28 19 21 19 21 -17 36 -67
28 -97 17 -97 -35 0 -10 16 -31 36 -47 20 -16 35 -35 33 -42 -6 -16 -196 81
-294 151 -42 29 -85 58 -96 64 -37 20 -43 32 -29 49 14 17 50 20 50 4 0 -8 5
-8 15 1 13 10 15 9 15 -11 1 -21 2 -22 11 -6 5 9 7 22 4 27 -3 6 1 10 9 10 8
0 19 -6 23 -13 8 -12 40 -30 76 -41 9 -3 28 -1 42 4 19 7 24 16 23 37 -1 15
-6 33 -11 40 -5 7 -6 17 -2 23 11 18 -14 75 -48 106 -53 49 -95 74 -112 68 -8
-4 -22 -1 -30 6 -20 16 -81 6 -107 -17 -11 -10 -24 -28 -29 -41 -5 -13 -13
-21 -17 -18 -4 2 -9 -9 -10 -26 -3 -33 22 -80 62 -117 14 -14 26 -28 26 -33 0
-15 -41 -8 -90 17 -27 14 -55 25 -63 25 -7 0 -35 23 -62 50 -27 28 -57 50 -66
50 -29 0 -37 23 -34 100 1 41 0 77 -5 80 -4 3 -10 17 -14 33 -5 23 -2 29 19
39 14 6 25 14 25 18 0 10 36 50 44 50 14 0 36 -29 36 -45 0 -13 6 -16 25 -13
14 3 28 2 30 -2 8 -13 69 0 89 19 18 18 18 25 6 103 -7 45 -17 91 -22 101 -11
21 -48 23 -48 2 0 -8 -4 -15 -10 -15 -5 0 -10 11 -10 25 0 15 -9 31 -24 40
-13 9 -27 27 -30 40 -4 14 -18 27 -37 34 -18 6 -32 10 -33 10 -1 -1 -14 -4
-31 -6z m75 -87 c0 -3 -4 -8 -10 -11 -5 -3 -10 -1 -10 4 0 6 5 11 10 11 6 0
10 -2 10 -4z m-260 -130 c0 -3 -4 -8 -10 -11 -5 -3 -10 -1 -10 4 0 6 5 11 10
11 6 0 10 -2 10 -4z m107 -18 c-3 -8 -6 -5 -6 6 -1 11 2 17 5 13 3 -3 4 -12 1
-19z m-64 -60 c16 -32 23 -56 17 -62 -5 -5 -5 -17 2 -30 6 -12 12 -32 13 -46
1 -14 2 -45 3 -69 2 -51 13 -50 13 0 0 19 3 47 6 63 5 29 5 29 29 -20 23 -48
32 -128 16 -138 -4 -3 -63 -7 -131 -10 -107 -4 -121 -3 -111 9 21 25 -4 16
-29 -10 -16 -17 -34 -25 -57 -25 -34 0 -34 0 -34 46 0 32 3 43 12 38 6 -4 8
-3 4 4 -3 6 -2 30 4 54 5 24 12 56 15 71 6 28 7 28 29 13 22 -14 24 -14 29 4
3 12 14 20 25 20 12 0 24 5 28 11 3 6 10 7 15 2 12 -12 -13 -64 -28 -58 -7 2
-13 0 -13 -4 0 -5 5 -11 11 -13 14 -5 24 -94 13 -111 -5 -7 -1 -4 9 7 14 15
16 28 11 65 -6 41 -5 45 9 33 14 -12 16 -9 15 26 0 28 6 47 22 64 21 23 22 34
4 96 -13 44 23 23 49 -30z m101 -20 c-4 -6 -11 -25 -15 -42 -5 -25 -7 -26 -8
-8 -1 23 15 62 25 62 3 0 2 -5 -2 -12z m-372 -190 c-5 -22 -16 -23 -32 -3 -11
13 -10 19 6 34 17 16 20 16 25 2 3 -9 4 -24 1 -33z m-82 22 c12 -8 11 -10 -7
-10 -12 0 -25 5 -28 10 -8 13 15 13 35 0z m68 -128 c3 -18 -1 -21 -19 -19 -12
2 -26 14 -31 26 -7 20 -5 22 20 19 19 -2 28 -9 30 -26z m-120 -13 c-3 -8 -7
-3 -11 10 -4 17 -3 21 5 13 5 -5 8 -16 6 -23z m879 -21 c-3 -8 -6 -5 -6 6 -1
11 2 17 5 13 3 -3 4 -12 1 -19z m138 -88 c3 -5 2 -10 -4 -10 -5 0 -13 5 -16
10 -3 6 -2 10 4 10 5 0 13 -4 16 -10z m1271 -537 c-10 -10 -19 5 -10 18 6 11
8 11 12 0 2 -7 1 -15 -2 -18z m-16 -29 c0 -21 -17 -25 -22 -6 -3 11 0 19 8 19
8 0 14 -6 14 -13z m62 -26 c-9 -16 -23 -35 -31 -41 -11 -10 -13 -8 -6 13 19
60 25 70 40 64 13 -5 13 -10 -3 -36z m-45 10 c-3 -8 -6 -5 -6 6 -1 11 2 17 5
13 3 -3 4 -12 1 -19z"/>
<path d="M460 1078 c0 -11 -5 -15 -15 -12 -8 4 -15 1 -15 -5 0 -6 5 -11 10
-11 6 0 10 -5 10 -11 0 -5 12 -27 26 -47 l26 -37 -6 34 c-3 18 -6 41 -6 50 0
10 -7 26 -15 37 -13 17 -14 17 -15 2z"/>
<path d="M6253 1107 c-12 -7 -44 -33 -71 -59 -28 -27 -57 -48 -66 -48 -8 0
-31 -15 -49 -32 -41 -40 -78 -68 -89 -68 -18 0 -28 -39 -16 -64 9 -22 8 -29
-7 -47 -16 -16 -17 -23 -7 -37 7 -9 16 -27 22 -39 19 -45 79 -57 115 -23 20
19 24 19 69 6 38 -12 45 -12 36 -1 -8 10 -6 15 9 20 36 11 111 -44 111 -82 0
-20 -4 -23 -21 -18 -15 5 -19 4 -15 -4 4 -6 -2 -24 -13 -40 -12 -16 -21 -34
-21 -39 0 -11 -9 -14 -65 -27 -16 -4 -38 -14 -48 -23 -18 -16 -20 -16 -32 1
-8 12 -15 14 -20 8 -3 -6 1 -14 9 -17 25 -10 -133 -155 -204 -189 -57 -27 -59
-28 -94 -11 -20 9 -36 23 -36 31 0 8 -5 15 -11 15 -6 0 -8 -7 -5 -16 9 -23
-34 -60 -70 -59 -27 0 -29 3 -30 37 0 20 -5 43 -11 50 -6 7 -19 31 -29 53
l-19 40 -3 -37 c-4 -49 -19 -49 -28 0 -4 20 -11 46 -17 56 -8 17 -11 15 -27
-19 l-18 -38 -13 29 c-9 18 -22 29 -34 29 -17 0 -20 -8 -23 -62 -3 -54 -6 -63
-25 -69 -12 -4 -30 -7 -39 -5 -10 1 -18 -3 -18 -9 0 -6 8 -10 17 -8 12 2 19
-6 23 -28 7 -32 -1 -37 -28 -20 -11 6 -12 -1 -7 -36 l7 -44 -35 0 -35 0 24 29
c23 27 24 47 4 47 -5 0 -21 -17 -35 -37 l-25 -38 0 29 c0 23 -3 26 -13 17 -17
-13 -27 -5 -21 17 3 11 -1 8 -12 -6 -16 -21 -52 -33 -39 -12 4 6 -1 7 -12 3
-15 -6 -16 -4 -6 8 11 13 8 59 -4 59 -2 0 -12 -8 -21 -17 -12 -12 -13 -18 -4
-21 6 -2 12 -9 12 -16 0 -7 9 -23 20 -36 16 -18 23 -21 32 -12 7 7 15 12 19
12 13 0 18 -29 7 -36 -7 -5 -8 -2 -3 6 5 8 3 11 -6 8 -8 -2 -15 -17 -17 -31
-3 -21 -9 -27 -28 -27 -13 0 -24 6 -24 13 0 9 -2 9 -8 -1 -14 -21 -66 -20 -70
0 -2 13 3 18 17 18 44 0 35 83 -15 140 -37 42 -64 52 -106 39 -18 -6 -54 -10
-80 -10 -25 0 -59 -6 -75 -14 -15 -8 -35 -15 -44 -15 -9 0 -22 -7 -30 -16 -8
-9 -21 -13 -35 -10 -12 3 -33 2 -46 -3 -13 -6 -19 -10 -15 -10 10 -1 -18 -31
-28 -31 -4 0 -5 7 -1 15 3 8 1 15 -4 15 -5 0 -11 -12 -13 -27 l-4 -28 -2 28
c-2 41 -18 33 -26 -13 -4 -22 -11 -40 -17 -40 -13 0 -1 -50 18 -71 20 -22 18
-29 -8 -30 -21 -1 -21 -1 3 -10 15 -6 29 -19 32 -29 3 -13 14 -20 31 -20 23 0
25 3 16 24 -5 13 -6 27 -3 30 13 13 121 5 153 -10 l33 -17 -29 -13 c-24 -10
153 -13 979 -13 l1008 -1 -2 405 c-1 223 -4 404 -7 401 -3 -3 -8 -23 -11 -43
-6 -37 -7 -38 -51 -39 -40 0 -48 -5 -76 -41 -27 -35 -32 -38 -43 -24 -11 15
-12 15 -7 0 3 -13 0 -15 -16 -11 -15 3 -19 1 -16 -9 3 -8 15 -13 26 -11 12 2
22 -2 22 -7 0 -6 -8 -11 -18 -11 -10 0 -54 -11 -98 -24 -43 -13 -83 -21 -88
-19 -4 3 -5 18 -2 34 3 15 -1 44 -10 64 -14 34 -13 37 11 69 14 18 25 38 25
45 0 7 4 9 10 6 5 -3 17 13 27 36 15 40 17 41 25 19 6 -15 5 -26 -3 -31 -8 -5
-7 -8 2 -12 11 -3 9 -14 -9 -48 l-22 -44 33 39 c27 32 40 39 73 41 21 1 49 3
62 4 35 2 64 57 57 106 -3 22 -14 48 -23 58 -9 11 -16 22 -14 26 1 3 -13 8
-33 11 -20 3 -35 7 -34 10 0 3 -4 23 -10 46 -17 65 -36 75 -127 72 -44 -2 -82
-7 -85 -12 -4 -4 -15 -4 -25 2 -14 7 -26 7 -41 -1z m62 -415 c-13 -14 -23 25
-18 72 8 83 18 86 21 7 2 -40 0 -76 -3 -79z m-35 51 c0 -15 -3 -23 -7 -19 -11
10 -11 56 -1 50 4 -3 8 -17 8 -31z m-903 -570 c-3 -10 -5 -4 -5 12 0 17 2 24
5 18 2 -7 2 -21 0 -30z m-407 -42 c0 -5 -6 -12 -12 -15 -7 -3 5 -3 27 0 30 4
36 3 25 -5 -8 -6 -23 -11 -32 -11 -12 0 -15 -5 -11 -16 4 -12 2 -15 -8 -12
-21 7 -25 68 -5 68 9 0 16 -4 16 -9z m-342 -13 c-6 -18 -25 -20 -31 -3 -5 10
0 15 14 15 12 0 19 -5 17 -12z m264 -59 c-8 -20 -9 -20 -16 -4 -3 10 -4 27 0
38 6 17 8 18 15 5 5 -9 5 -26 1 -39z"/>
<path d="M728 1053 c10 -4 9 -9 -5 -19 -16 -13 -15 -13 9 -3 29 13 29 30 0 28
-11 0 -13 -2 -4 -6z"/>
<path d="M6682 930 c0 -14 2 -19 5 -12 2 6 2 18 0 25 -3 6 -5 1 -5 -13z"/>
<path d="M6228 684 c-5 -4 -8 -11 -8 -15 0 -12 30 -39 43 -39 6 0 4 6 -5 13
-9 6 -18 20 -20 30 -1 11 -6 15 -10 11z"/>
<path d="M1472 518 c-14 -53 16 -111 45 -86 7 5 20 8 28 4 8 -3 15 -1 15 5 0
5 8 9 18 7 27 -5 24 65 -3 70 -11 3 -24 10 -28 18 -4 8 -21 14 -37 14 -25 0
-31 -5 -38 -32z"/>
<path d="M6208 533 c7 -3 16 -2 19 1 4 3 -2 6 -13 5 -11 0 -14 -3 -6 -6z"/>
<path d="M6155 520 c3 -5 8 -10 11 -10 2 0 4 5 4 10 0 6 -5 10 -11 10 -5 0 -7
-4 -4 -10z"/>
<path d="M5980 481 c0 -6 5 -13 10 -16 6 -3 10 1 10 9 0 9 -4 16 -10 16 -5 0
-10 -4 -10 -9z"/>
<path d="M6047 463 c-4 -3 -7 -11 -7 -17 0 -6 5 -5 12 2 6 6 9 14 7 17 -3 3
-9 2 -12 -2z"/>
<path d="M5920 445 c7 -8 16 -15 21 -15 5 0 9 7 9 15 0 9 -9 15 -21 15 -18 0
-19 -2 -9 -15z"/>
<path d="M5878 433 c7 -3 16 -2 19 1 4 3 -2 6 -13 5 -11 0 -14 -3 -6 -6z"/>
<path d="M5700 310 c0 -5 5 -10 10 -10 6 0 10 5 10 10 0 6 -4 10 -10 10 -5 0
-10 -4 -10 -10z"/>
<path d="M4478 53 c7 -3 16 -2 19 1 4 3 -2 6 -13 5 -11 0 -14 -3 -6 -6z"/>
<path d="M2870 10 c0 -5 9 -10 21 -10 11 0 17 4 14 10 -8 13 -35 13 -35 0z"/>
</g>
</svg>
